<mxfile host="app.diagrams.net" modified="2023-06-12T14:24:48.464Z" agent="Mozilla/5.0 (Windows NT 10.0; Win64; x64) AppleWebKit/537.36 (KHTML, like Gecko) Chrome/112.0.0.0 YaBrowser/23.5.1.721 Yowser/2.5 Safari/537.36" etag="DnTHejXXQMlb2PFKWn_3" version="21.3.7" type="device" pages="4">
  <diagram id="iVOQHDXgSsNEO64mtc5p" name="Прецедентов">
    <mxGraphModel dx="1573" dy="698" grid="1" gridSize="10" guides="1" tooltips="1" connect="1" arrows="1" fold="1" page="1" pageScale="1" pageWidth="2339" pageHeight="3300" math="0" shadow="0">
      <root>
        <mxCell id="0" />
        <mxCell id="1" parent="0" />
        <mxCell id="v10llTpg6LopYrafMSE0-1" value="Руководитель структурного&lt;br&gt;подразделения" style="shape=umlActor;verticalLabelPosition=bottom;verticalAlign=top;html=1;outlineConnect=0;" parent="1" vertex="1">
          <mxGeometry x="460" y="400" width="40" height="90" as="geometry" />
        </mxCell>
        <mxCell id="v10llTpg6LopYrafMSE0-2" value="Подача заявки в департамент управления персоналом" style="ellipse;whiteSpace=wrap;html=1;" parent="1" vertex="1">
          <mxGeometry x="540" y="260" width="150" height="70" as="geometry" />
        </mxCell>
        <mxCell id="v10llTpg6LopYrafMSE0-3" value="" style="endArrow=classic;html=1;rounded=0;exitX=1;exitY=0.3333333333333333;exitDx=0;exitDy=0;exitPerimeter=0;entryX=0.285;entryY=0.953;entryDx=0;entryDy=0;entryPerimeter=0;" parent="1" source="v10llTpg6LopYrafMSE0-1" target="v10llTpg6LopYrafMSE0-2" edge="1">
          <mxGeometry width="50" height="50" relative="1" as="geometry">
            <mxPoint x="840" y="380" as="sourcePoint" />
            <mxPoint x="580" y="330" as="targetPoint" />
          </mxGeometry>
        </mxCell>
        <mxCell id="v10llTpg6LopYrafMSE0-4" value="Use" style="endArrow=open;endSize=12;dashed=1;html=1;rounded=0;exitX=0.661;exitY=0.993;exitDx=0;exitDy=0;exitPerimeter=0;entryX=0;entryY=0;entryDx=0;entryDy=0;" parent="1" source="v10llTpg6LopYrafMSE0-2" target="v10llTpg6LopYrafMSE0-5" edge="1">
          <mxGeometry width="160" relative="1" as="geometry">
            <mxPoint x="790" y="580" as="sourcePoint" />
            <mxPoint x="750" y="410" as="targetPoint" />
          </mxGeometry>
        </mxCell>
        <mxCell id="v10llTpg6LopYrafMSE0-5" value="Заполнение бланка заявки на подбор кандидатов" style="ellipse;whiteSpace=wrap;html=1;" parent="1" vertex="1">
          <mxGeometry x="660" y="360" width="140" height="80" as="geometry" />
        </mxCell>
        <mxCell id="v10llTpg6LopYrafMSE0-6" value="Директор" style="shape=umlActor;verticalLabelPosition=bottom;verticalAlign=top;html=1;outlineConnect=0;" parent="1" vertex="1">
          <mxGeometry x="880" y="140" width="40" height="90" as="geometry" />
        </mxCell>
        <mxCell id="v10llTpg6LopYrafMSE0-7" value="Визирование&lt;br&gt;заявки" style="ellipse;whiteSpace=wrap;html=1;" parent="1" vertex="1">
          <mxGeometry x="975" y="200" width="120" height="80" as="geometry" />
        </mxCell>
        <mxCell id="v10llTpg6LopYrafMSE0-8" value="" style="endArrow=classic;html=1;rounded=0;exitX=1;exitY=0.5;exitDx=0;exitDy=0;entryX=0;entryY=0.5;entryDx=0;entryDy=0;" parent="1" source="v10llTpg6LopYrafMSE0-2" target="v10llTpg6LopYrafMSE0-7" edge="1">
          <mxGeometry width="50" height="50" relative="1" as="geometry">
            <mxPoint x="840" y="480" as="sourcePoint" />
            <mxPoint x="810" y="320" as="targetPoint" />
          </mxGeometry>
        </mxCell>
        <mxCell id="v10llTpg6LopYrafMSE0-10" value="" style="endArrow=classic;html=1;rounded=0;exitX=1;exitY=0.3333333333333333;exitDx=0;exitDy=0;exitPerimeter=0;entryX=0.038;entryY=0.349;entryDx=0;entryDy=0;entryPerimeter=0;" parent="1" source="v10llTpg6LopYrafMSE0-6" target="v10llTpg6LopYrafMSE0-7" edge="1">
          <mxGeometry width="50" height="50" relative="1" as="geometry">
            <mxPoint x="840" y="480" as="sourcePoint" />
            <mxPoint x="890" y="430" as="targetPoint" />
          </mxGeometry>
        </mxCell>
        <mxCell id="v10llTpg6LopYrafMSE0-11" value="Рекрутер" style="shape=umlActor;verticalLabelPosition=bottom;verticalAlign=top;html=1;outlineConnect=0;" parent="1" vertex="1">
          <mxGeometry x="1200" y="190" width="40" height="90" as="geometry" />
        </mxCell>
        <mxCell id="v10llTpg6LopYrafMSE0-12" value="" style="endArrow=classic;html=1;rounded=0;exitX=0.967;exitY=0.696;exitDx=0;exitDy=0;entryX=0.028;entryY=0.334;entryDx=0;entryDy=0;entryPerimeter=0;exitPerimeter=0;" parent="1" source="v10llTpg6LopYrafMSE0-7" target="v10llTpg6LopYrafMSE0-13" edge="1">
          <mxGeometry width="50" height="50" relative="1" as="geometry">
            <mxPoint x="840" y="480" as="sourcePoint" />
            <mxPoint x="890" y="430" as="targetPoint" />
          </mxGeometry>
        </mxCell>
        <mxCell id="v10llTpg6LopYrafMSE0-13" value="Анализирование заявки" style="ellipse;whiteSpace=wrap;html=1;" parent="1" vertex="1">
          <mxGeometry x="1250" y="320" width="120" height="80" as="geometry" />
        </mxCell>
        <mxCell id="v10llTpg6LopYrafMSE0-14" value="" style="endArrow=classic;html=1;rounded=0;exitX=1;exitY=0.3333333333333333;exitDx=0;exitDy=0;exitPerimeter=0;entryX=0.312;entryY=0.025;entryDx=0;entryDy=0;entryPerimeter=0;" parent="1" source="v10llTpg6LopYrafMSE0-11" target="v10llTpg6LopYrafMSE0-13" edge="1">
          <mxGeometry width="50" height="50" relative="1" as="geometry">
            <mxPoint x="1080" y="480" as="sourcePoint" />
            <mxPoint x="1130" y="430" as="targetPoint" />
          </mxGeometry>
        </mxCell>
        <mxCell id="v10llTpg6LopYrafMSE0-15" value="" style="endArrow=classic;html=1;rounded=0;entryX=0.641;entryY=0.026;entryDx=0;entryDy=0;exitX=0.346;exitY=0.991;exitDx=0;exitDy=0;entryPerimeter=0;exitPerimeter=0;" parent="1" source="v10llTpg6LopYrafMSE0-13" target="v10llTpg6LopYrafMSE0-16" edge="1">
          <mxGeometry width="50" height="50" relative="1" as="geometry">
            <mxPoint x="1289" y="398" as="sourcePoint" />
            <mxPoint x="1460" y="500" as="targetPoint" />
          </mxGeometry>
        </mxCell>
        <mxCell id="v10llTpg6LopYrafMSE0-16" value="Сформировать профиль должности" style="ellipse;whiteSpace=wrap;html=1;" parent="1" vertex="1">
          <mxGeometry x="1180" y="470" width="140" height="90" as="geometry" />
        </mxCell>
        <mxCell id="v10llTpg6LopYrafMSE0-17" value="Пользователь" style="shape=umlActor;verticalLabelPosition=bottom;verticalAlign=top;html=1;outlineConnect=0;" parent="1" vertex="1">
          <mxGeometry x="595" y="870" width="40" height="90" as="geometry" />
        </mxCell>
        <mxCell id="v10llTpg6LopYrafMSE0-18" value="Зарегистрироваться" style="ellipse;whiteSpace=wrap;html=1;" parent="1" vertex="1">
          <mxGeometry x="670" y="480" width="120" height="80" as="geometry" />
        </mxCell>
        <mxCell id="v10llTpg6LopYrafMSE0-19" value="Авторизироваться" style="ellipse;whiteSpace=wrap;html=1;" parent="1" vertex="1">
          <mxGeometry x="530" y="570" width="120" height="80" as="geometry" />
        </mxCell>
        <mxCell id="v10llTpg6LopYrafMSE0-20" value="" style="endArrow=classic;html=1;rounded=0;exitX=0;exitY=0.3333333333333333;exitDx=0;exitDy=0;exitPerimeter=0;entryX=0.5;entryY=1;entryDx=0;entryDy=0;" parent="1" source="v10llTpg6LopYrafMSE0-17" target="v10llTpg6LopYrafMSE0-19" edge="1">
          <mxGeometry width="50" height="50" relative="1" as="geometry">
            <mxPoint x="890" y="700" as="sourcePoint" />
            <mxPoint x="940" y="650" as="targetPoint" />
          </mxGeometry>
        </mxCell>
        <mxCell id="v10llTpg6LopYrafMSE0-21" value="" style="endArrow=classic;html=1;rounded=0;exitX=1;exitY=0.3333333333333333;exitDx=0;exitDy=0;exitPerimeter=0;entryX=0.364;entryY=0.987;entryDx=0;entryDy=0;entryPerimeter=0;" parent="1" source="v10llTpg6LopYrafMSE0-17" target="v10llTpg6LopYrafMSE0-18" edge="1">
          <mxGeometry width="50" height="50" relative="1" as="geometry">
            <mxPoint x="890" y="700" as="sourcePoint" />
            <mxPoint x="700" y="580" as="targetPoint" />
          </mxGeometry>
        </mxCell>
        <mxCell id="v10llTpg6LopYrafMSE0-22" value="Use" style="endArrow=open;endSize=12;dashed=1;html=1;rounded=0;exitX=0;exitY=1;exitDx=0;exitDy=0;entryX=1;entryY=0;entryDx=0;entryDy=0;" parent="1" source="v10llTpg6LopYrafMSE0-18" target="v10llTpg6LopYrafMSE0-19" edge="1">
          <mxGeometry width="160" relative="1" as="geometry">
            <mxPoint x="830" y="670" as="sourcePoint" />
            <mxPoint x="990" y="670" as="targetPoint" />
          </mxGeometry>
        </mxCell>
        <mxCell id="v10llTpg6LopYrafMSE0-23" value="Управлять аккаунтом" style="ellipse;whiteSpace=wrap;html=1;" parent="1" vertex="1">
          <mxGeometry x="550" y="420" width="120" height="80" as="geometry" />
        </mxCell>
        <mxCell id="v10llTpg6LopYrafMSE0-24" value="Extends" style="endArrow=block;endSize=16;endFill=0;html=1;rounded=0;exitX=0.5;exitY=1;exitDx=0;exitDy=0;entryX=0.5;entryY=0;entryDx=0;entryDy=0;" parent="1" source="v10llTpg6LopYrafMSE0-23" target="v10llTpg6LopYrafMSE0-19" edge="1">
          <mxGeometry width="160" relative="1" as="geometry">
            <mxPoint x="680" y="630" as="sourcePoint" />
            <mxPoint x="990" y="670" as="targetPoint" />
          </mxGeometry>
        </mxCell>
        <mxCell id="v10llTpg6LopYrafMSE0-25" value="Соискатель" style="shape=umlActor;verticalLabelPosition=bottom;verticalAlign=top;html=1;outlineConnect=0;" parent="1" vertex="1">
          <mxGeometry x="1000" y="1030" width="40" height="90" as="geometry" />
        </mxCell>
        <mxCell id="v10llTpg6LopYrafMSE0-26" value="Администратор" style="shape=umlActor;verticalLabelPosition=bottom;verticalAlign=top;html=1;outlineConnect=0;" parent="1" vertex="1">
          <mxGeometry x="1460" y="1000" width="40" height="90" as="geometry" />
        </mxCell>
        <mxCell id="v10llTpg6LopYrafMSE0-27" value="Администрировать сайт" style="ellipse;whiteSpace=wrap;html=1;" parent="1" vertex="1">
          <mxGeometry x="1380" y="790" width="120" height="80" as="geometry" />
        </mxCell>
        <mxCell id="v10llTpg6LopYrafMSE0-28" value="Добавление информации на сайт" style="ellipse;whiteSpace=wrap;html=1;" parent="1" vertex="1">
          <mxGeometry x="1380" y="610" width="120" height="80" as="geometry" />
        </mxCell>
        <mxCell id="v10llTpg6LopYrafMSE0-29" value="" style="endArrow=classic;html=1;rounded=0;exitX=0;exitY=0.3333333333333333;exitDx=0;exitDy=0;exitPerimeter=0;entryX=0.5;entryY=1;entryDx=0;entryDy=0;" parent="1" source="v10llTpg6LopYrafMSE0-26" target="v10llTpg6LopYrafMSE0-27" edge="1">
          <mxGeometry width="50" height="50" relative="1" as="geometry">
            <mxPoint x="1060" y="970" as="sourcePoint" />
            <mxPoint x="1500" y="870" as="targetPoint" />
          </mxGeometry>
        </mxCell>
        <mxCell id="v10llTpg6LopYrafMSE0-37" value="Добавление информации о должности и условиях" style="ellipse;whiteSpace=wrap;html=1;" parent="1" vertex="1">
          <mxGeometry x="1010" y="480" width="120" height="80" as="geometry" />
        </mxCell>
        <mxCell id="v10llTpg6LopYrafMSE0-38" value="Use" style="endArrow=open;endSize=12;dashed=1;html=1;rounded=0;exitX=0;exitY=0.5;exitDx=0;exitDy=0;entryX=1;entryY=0.5;entryDx=0;entryDy=0;" parent="1" source="v10llTpg6LopYrafMSE0-16" target="v10llTpg6LopYrafMSE0-37" edge="1">
          <mxGeometry width="160" relative="1" as="geometry">
            <mxPoint x="1020" y="490" as="sourcePoint" />
            <mxPoint x="1280" y="560" as="targetPoint" />
          </mxGeometry>
        </mxCell>
        <mxCell id="v10llTpg6LopYrafMSE0-43" value="Установка резюме статуса(подходит/не подходит)" style="ellipse;whiteSpace=wrap;html=1;" parent="1" vertex="1">
          <mxGeometry x="1550" y="610" width="140" height="80" as="geometry" />
        </mxCell>
        <mxCell id="v10llTpg6LopYrafMSE0-46" value="Use" style="endArrow=open;endSize=12;dashed=1;html=1;rounded=0;exitX=0.023;exitY=0.344;exitDx=0;exitDy=0;entryX=1;entryY=0.5;entryDx=0;entryDy=0;exitPerimeter=0;" parent="1" source="v10llTpg6LopYrafMSE0-43" target="v10llTpg6LopYrafMSE0-28" edge="1">
          <mxGeometry width="160" relative="1" as="geometry">
            <mxPoint x="1120" y="800" as="sourcePoint" />
            <mxPoint x="1280" y="800" as="targetPoint" />
          </mxGeometry>
        </mxCell>
        <mxCell id="v10llTpg6LopYrafMSE0-47" value="Extends" style="endArrow=block;endSize=16;endFill=0;html=1;rounded=0;entryX=0.5;entryY=0;entryDx=0;entryDy=0;exitX=0.5;exitY=1;exitDx=0;exitDy=0;" parent="1" source="v10llTpg6LopYrafMSE0-28" target="v10llTpg6LopYrafMSE0-27" edge="1">
          <mxGeometry width="160" relative="1" as="geometry">
            <mxPoint x="1120" y="930" as="sourcePoint" />
            <mxPoint x="1280" y="930" as="targetPoint" />
          </mxGeometry>
        </mxCell>
        <mxCell id="v10llTpg6LopYrafMSE0-62" value="" style="endArrow=classic;html=1;rounded=0;exitX=1;exitY=0.3333333333333333;exitDx=0;exitDy=0;exitPerimeter=0;entryX=0.5;entryY=1;entryDx=0;entryDy=0;" parent="1" source="v10llTpg6LopYrafMSE0-25" target="G3HEFDCoS6vx8DGsJnJv-1" edge="1">
          <mxGeometry width="50" height="50" relative="1" as="geometry">
            <mxPoint x="1280" y="880" as="sourcePoint" />
            <mxPoint x="1150" y="940" as="targetPoint" />
          </mxGeometry>
        </mxCell>
        <mxCell id="v10llTpg6LopYrafMSE0-80" value="Extends" style="endArrow=block;endSize=16;endFill=0;html=1;rounded=0;exitX=0;exitY=1;exitDx=0;exitDy=0;exitPerimeter=0;entryX=0;entryY=0.3333333333333333;entryDx=0;entryDy=0;entryPerimeter=0;" parent="1" source="v10llTpg6LopYrafMSE0-1" target="v10llTpg6LopYrafMSE0-17" edge="1">
          <mxGeometry width="160" relative="1" as="geometry">
            <mxPoint x="1120" y="730" as="sourcePoint" />
            <mxPoint x="1280" y="730" as="targetPoint" />
          </mxGeometry>
        </mxCell>
        <mxCell id="v10llTpg6LopYrafMSE0-81" value="Extends" style="endArrow=block;endSize=16;endFill=0;html=1;rounded=0;exitX=1;exitY=1;exitDx=0;exitDy=0;exitPerimeter=0;entryX=1;entryY=0.3333333333333333;entryDx=0;entryDy=0;entryPerimeter=0;" parent="1" source="v10llTpg6LopYrafMSE0-6" target="v10llTpg6LopYrafMSE0-17" edge="1">
          <mxGeometry width="160" relative="1" as="geometry">
            <mxPoint x="900" y="400" as="sourcePoint" />
            <mxPoint x="1280" y="730" as="targetPoint" />
          </mxGeometry>
        </mxCell>
        <mxCell id="v10llTpg6LopYrafMSE0-82" value="Extends" style="endArrow=block;endSize=16;endFill=0;html=1;rounded=0;exitX=0;exitY=1;exitDx=0;exitDy=0;exitPerimeter=0;entryX=1;entryY=0.3333333333333333;entryDx=0;entryDy=0;entryPerimeter=0;" parent="1" source="v10llTpg6LopYrafMSE0-11" target="v10llTpg6LopYrafMSE0-17" edge="1">
          <mxGeometry width="160" relative="1" as="geometry">
            <mxPoint x="1120" y="590" as="sourcePoint" />
            <mxPoint x="1280" y="590" as="targetPoint" />
          </mxGeometry>
        </mxCell>
        <mxCell id="v10llTpg6LopYrafMSE0-85" value="Extends" style="endArrow=block;endSize=16;endFill=0;html=1;rounded=0;entryX=0;entryY=1;entryDx=0;entryDy=0;entryPerimeter=0;exitX=0;exitY=0.3333333333333333;exitDx=0;exitDy=0;exitPerimeter=0;" parent="1" source="v10llTpg6LopYrafMSE0-25" target="v10llTpg6LopYrafMSE0-17" edge="1">
          <mxGeometry width="160" relative="1" as="geometry">
            <mxPoint x="1040" y="870" as="sourcePoint" />
            <mxPoint x="1200" y="870" as="targetPoint" />
          </mxGeometry>
        </mxCell>
        <mxCell id="v10llTpg6LopYrafMSE0-89" value="Extends" style="endArrow=block;endSize=16;endFill=0;html=1;rounded=0;exitX=0;exitY=0.3333333333333333;exitDx=0;exitDy=0;exitPerimeter=0;" parent="1" source="v10llTpg6LopYrafMSE0-26" edge="1">
          <mxGeometry width="160" relative="1" as="geometry">
            <mxPoint x="1040" y="1030" as="sourcePoint" />
            <mxPoint x="630" y="890" as="targetPoint" />
          </mxGeometry>
        </mxCell>
        <mxCell id="v10llTpg6LopYrafMSE0-92" value="Подтверждение заявки(подпись)" style="ellipse;whiteSpace=wrap;html=1;" parent="1" vertex="1">
          <mxGeometry x="890" y="310" width="100" height="70" as="geometry" />
        </mxCell>
        <mxCell id="v10llTpg6LopYrafMSE0-99" value="" style="endArrow=classic;html=1;rounded=0;exitX=1;exitY=0.3333333333333333;exitDx=0;exitDy=0;exitPerimeter=0;entryX=0.029;entryY=0.34;entryDx=0;entryDy=0;entryPerimeter=0;" parent="1" source="v10llTpg6LopYrafMSE0-11" target="v10llTpg6LopYrafMSE0-100" edge="1">
          <mxGeometry width="50" height="50" relative="1" as="geometry">
            <mxPoint x="1230" y="580" as="sourcePoint" />
            <mxPoint x="1450" y="300" as="targetPoint" />
          </mxGeometry>
        </mxCell>
        <mxCell id="v10llTpg6LopYrafMSE0-100" value="Оформление договора" style="ellipse;whiteSpace=wrap;html=1;" parent="1" vertex="1">
          <mxGeometry x="1510" y="230" width="120" height="80" as="geometry" />
        </mxCell>
        <mxCell id="v10llTpg6LopYrafMSE0-102" value="Проверить данные о соискателе (СБ)" style="ellipse;whiteSpace=wrap;html=1;" parent="1" vertex="1">
          <mxGeometry x="1680" y="340" width="140" height="90" as="geometry" />
        </mxCell>
        <mxCell id="v10llTpg6LopYrafMSE0-104" value="Extends" style="endArrow=block;endSize=16;endFill=0;html=1;rounded=0;entryX=1;entryY=1;entryDx=0;entryDy=0;exitX=0;exitY=0;exitDx=0;exitDy=0;" parent="1" source="v10llTpg6LopYrafMSE0-102" target="v10llTpg6LopYrafMSE0-100" edge="1">
          <mxGeometry width="160" relative="1" as="geometry">
            <mxPoint x="1130" y="490" as="sourcePoint" />
            <mxPoint x="1290" y="490" as="targetPoint" />
          </mxGeometry>
        </mxCell>
        <mxCell id="v10llTpg6LopYrafMSE0-105" value="Создание рекламы" style="ellipse;whiteSpace=wrap;html=1;" parent="1" vertex="1">
          <mxGeometry x="1540" y="720" width="120" height="80" as="geometry" />
        </mxCell>
        <mxCell id="v10llTpg6LopYrafMSE0-106" value="" style="endArrow=classic;html=1;rounded=0;exitX=1;exitY=0.3333333333333333;exitDx=0;exitDy=0;exitPerimeter=0;entryX=0.5;entryY=1;entryDx=0;entryDy=0;" parent="1" source="v10llTpg6LopYrafMSE0-26" target="v10llTpg6LopYrafMSE0-105" edge="1">
          <mxGeometry width="50" height="50" relative="1" as="geometry">
            <mxPoint x="1190" y="820" as="sourcePoint" />
            <mxPoint x="1240" y="770" as="targetPoint" />
          </mxGeometry>
        </mxCell>
        <mxCell id="v10llTpg6LopYrafMSE0-107" value="Extends" style="endArrow=block;endSize=16;endFill=0;html=1;rounded=0;exitX=0.021;exitY=0.694;exitDx=0;exitDy=0;entryX=1;entryY=0;entryDx=0;entryDy=0;exitPerimeter=0;" parent="1" source="v10llTpg6LopYrafMSE0-105" target="v10llTpg6LopYrafMSE0-27" edge="1">
          <mxGeometry width="160" relative="1" as="geometry">
            <mxPoint x="1130" y="800" as="sourcePoint" />
            <mxPoint x="1530" y="820" as="targetPoint" />
          </mxGeometry>
        </mxCell>
        <mxCell id="v10llTpg6LopYrafMSE0-109" value="Use" style="endArrow=open;endSize=12;dashed=1;html=1;rounded=0;entryX=0.973;entryY=0.309;entryDx=0;entryDy=0;entryPerimeter=0;exitX=0.034;exitY=0.721;exitDx=0;exitDy=0;exitPerimeter=0;" parent="1" source="v10llTpg6LopYrafMSE0-100" target="v10llTpg6LopYrafMSE0-110" edge="1">
          <mxGeometry width="160" relative="1" as="geometry">
            <mxPoint x="1518" y="308" as="sourcePoint" />
            <mxPoint x="1450" y="330" as="targetPoint" />
          </mxGeometry>
        </mxCell>
        <mxCell id="v10llTpg6LopYrafMSE0-110" value="Заполнение формы" style="ellipse;whiteSpace=wrap;html=1;" parent="1" vertex="1">
          <mxGeometry x="1370" y="290" width="100" height="70" as="geometry" />
        </mxCell>
        <mxCell id="v10llTpg6LopYrafMSE0-111" value="" style="endArrow=classic;html=1;rounded=0;exitX=0.5;exitY=1;exitDx=0;exitDy=0;" parent="1" source="v10llTpg6LopYrafMSE0-100" target="v10llTpg6LopYrafMSE0-112" edge="1">
          <mxGeometry width="50" height="50" relative="1" as="geometry">
            <mxPoint x="1280" y="510" as="sourcePoint" />
            <mxPoint x="1700" y="570" as="targetPoint" />
          </mxGeometry>
        </mxCell>
        <mxCell id="v10llTpg6LopYrafMSE0-112" value="Добавление соискателя в БД сотрудников компании" style="ellipse;whiteSpace=wrap;html=1;" parent="1" vertex="1">
          <mxGeometry x="1570" y="410" width="120" height="90" as="geometry" />
        </mxCell>
        <mxCell id="4sXES7oIiUdAfXBLpCzt-9" value="" style="endArrow=block;dashed=1;endFill=0;endSize=12;html=1;rounded=0;exitX=0.274;exitY=0.948;exitDx=0;exitDy=0;exitPerimeter=0;entryX=1;entryY=0;entryDx=0;entryDy=0;" parent="1" source="v10llTpg6LopYrafMSE0-7" target="v10llTpg6LopYrafMSE0-92" edge="1">
          <mxGeometry width="160" relative="1" as="geometry">
            <mxPoint x="830" y="330" as="sourcePoint" />
            <mxPoint x="990" y="330" as="targetPoint" />
          </mxGeometry>
        </mxCell>
        <mxCell id="4sXES7oIiUdAfXBLpCzt-10" value="Include" style="text;html=1;strokeColor=none;fillColor=none;align=center;verticalAlign=middle;whiteSpace=wrap;rounded=0;" parent="1" vertex="1">
          <mxGeometry x="990" y="280" width="60" height="30" as="geometry" />
        </mxCell>
        <mxCell id="4sXES7oIiUdAfXBLpCzt-14" value="Сообщить соискателю об успешном трудоустройстве" style="ellipse;whiteSpace=wrap;html=1;" parent="1" vertex="1">
          <mxGeometry x="1700" y="490" width="120" height="90" as="geometry" />
        </mxCell>
        <mxCell id="4sXES7oIiUdAfXBLpCzt-15" value="" style="endArrow=classic;html=1;rounded=0;entryX=0;entryY=0;entryDx=0;entryDy=0;exitX=1;exitY=1;exitDx=0;exitDy=0;" parent="1" source="v10llTpg6LopYrafMSE0-112" target="4sXES7oIiUdAfXBLpCzt-14" edge="1">
          <mxGeometry width="50" height="50" relative="1" as="geometry">
            <mxPoint x="1040" y="550" as="sourcePoint" />
            <mxPoint x="1090" y="500" as="targetPoint" />
          </mxGeometry>
        </mxCell>
        <mxCell id="4sXES7oIiUdAfXBLpCzt-16" value="Use" style="endArrow=open;endSize=12;dashed=1;html=1;rounded=0;exitX=0;exitY=0.5;exitDx=0;exitDy=0;entryX=1;entryY=0;entryDx=0;entryDy=0;" parent="1" source="4sXES7oIiUdAfXBLpCzt-14" target="v10llTpg6LopYrafMSE0-28" edge="1">
          <mxGeometry width="160" relative="1" as="geometry">
            <mxPoint x="980" y="670" as="sourcePoint" />
            <mxPoint x="1140" y="670" as="targetPoint" />
          </mxGeometry>
        </mxCell>
        <mxCell id="G3HEFDCoS6vx8DGsJnJv-1" value="Отклик" style="ellipse;whiteSpace=wrap;html=1;" parent="1" vertex="1">
          <mxGeometry x="1130" y="870" width="120" height="80" as="geometry" />
        </mxCell>
        <mxCell id="G3HEFDCoS6vx8DGsJnJv-2" value="Заполнение резюме" style="ellipse;whiteSpace=wrap;html=1;" parent="1" vertex="1">
          <mxGeometry x="1030" y="760" width="120" height="80" as="geometry" />
        </mxCell>
        <mxCell id="G3HEFDCoS6vx8DGsJnJv-3" value="" style="endArrow=classic;html=1;rounded=0;exitX=0;exitY=0;exitDx=0;exitDy=0;entryX=0.741;entryY=0.932;entryDx=0;entryDy=0;entryPerimeter=0;" parent="1" source="G3HEFDCoS6vx8DGsJnJv-1" target="G3HEFDCoS6vx8DGsJnJv-2" edge="1">
          <mxGeometry width="50" height="50" relative="1" as="geometry">
            <mxPoint x="1210" y="700" as="sourcePoint" />
            <mxPoint x="1260" y="650" as="targetPoint" />
          </mxGeometry>
        </mxCell>
        <mxCell id="G3HEFDCoS6vx8DGsJnJv-4" value="Проведение конкурса" style="ellipse;whiteSpace=wrap;html=1;" parent="1" vertex="1">
          <mxGeometry x="1130" y="610" width="120" height="80" as="geometry" />
        </mxCell>
        <mxCell id="G3HEFDCoS6vx8DGsJnJv-5" value="" style="endArrow=classic;html=1;rounded=0;exitX=0.289;exitY=0.963;exitDx=0;exitDy=0;entryX=0.5;entryY=0;entryDx=0;entryDy=0;exitPerimeter=0;" parent="1" source="v10llTpg6LopYrafMSE0-16" target="G3HEFDCoS6vx8DGsJnJv-4" edge="1">
          <mxGeometry width="50" height="50" relative="1" as="geometry">
            <mxPoint x="1210" y="700" as="sourcePoint" />
            <mxPoint x="1260" y="650" as="targetPoint" />
          </mxGeometry>
        </mxCell>
        <mxCell id="G3HEFDCoS6vx8DGsJnJv-6" value="" style="endArrow=classic;html=1;rounded=0;exitX=0.5;exitY=0;exitDx=0;exitDy=0;entryX=0.285;entryY=0.946;entryDx=0;entryDy=0;entryPerimeter=0;" parent="1" source="G3HEFDCoS6vx8DGsJnJv-2" target="G3HEFDCoS6vx8DGsJnJv-4" edge="1">
          <mxGeometry width="50" height="50" relative="1" as="geometry">
            <mxPoint x="1210" y="690" as="sourcePoint" />
            <mxPoint x="1260" y="640" as="targetPoint" />
          </mxGeometry>
        </mxCell>
        <mxCell id="G3HEFDCoS6vx8DGsJnJv-7" value="Заполнение формы с данными" style="ellipse;whiteSpace=wrap;html=1;" parent="1" vertex="1">
          <mxGeometry x="890" y="630" width="120" height="80" as="geometry" />
        </mxCell>
        <mxCell id="G3HEFDCoS6vx8DGsJnJv-9" value="Use" style="endArrow=open;endSize=12;dashed=1;html=1;rounded=0;exitX=0;exitY=0;exitDx=0;exitDy=0;entryX=0.7;entryY=0.98;entryDx=0;entryDy=0;entryPerimeter=0;" parent="1" source="G3HEFDCoS6vx8DGsJnJv-2" target="G3HEFDCoS6vx8DGsJnJv-7" edge="1">
          <mxGeometry width="160" relative="1" as="geometry">
            <mxPoint x="1030" y="670" as="sourcePoint" />
            <mxPoint x="1190" y="670" as="targetPoint" />
          </mxGeometry>
        </mxCell>
        <mxCell id="G3HEFDCoS6vx8DGsJnJv-10" value="Проставить оценки резюе" style="ellipse;whiteSpace=wrap;html=1;" parent="1" vertex="1">
          <mxGeometry x="1220" y="750" width="120" height="80" as="geometry" />
        </mxCell>
        <mxCell id="G3HEFDCoS6vx8DGsJnJv-11" value="" style="endArrow=block;dashed=1;endFill=0;endSize=12;html=1;rounded=0;exitX=0.759;exitY=0.927;exitDx=0;exitDy=0;entryX=0.316;entryY=0.061;entryDx=0;entryDy=0;entryPerimeter=0;exitPerimeter=0;" parent="1" source="G3HEFDCoS6vx8DGsJnJv-4" target="G3HEFDCoS6vx8DGsJnJv-10" edge="1">
          <mxGeometry width="160" relative="1" as="geometry">
            <mxPoint x="1030" y="660" as="sourcePoint" />
            <mxPoint x="1190" y="660" as="targetPoint" />
          </mxGeometry>
        </mxCell>
        <mxCell id="G3HEFDCoS6vx8DGsJnJv-12" value="Include" style="text;html=1;strokeColor=none;fillColor=none;align=center;verticalAlign=middle;whiteSpace=wrap;rounded=0;" parent="1" vertex="1">
          <mxGeometry x="1210" y="700" width="60" height="30" as="geometry" />
        </mxCell>
        <mxCell id="G3HEFDCoS6vx8DGsJnJv-13" value="Вывод результатов конкурсов резюме" style="ellipse;whiteSpace=wrap;html=1;" parent="1" vertex="1">
          <mxGeometry x="1380" y="460" width="120" height="80" as="geometry" />
        </mxCell>
        <mxCell id="G3HEFDCoS6vx8DGsJnJv-14" value="" style="endArrow=classic;html=1;rounded=0;exitX=1;exitY=0;exitDx=0;exitDy=0;entryX=0;entryY=1;entryDx=0;entryDy=0;" parent="1" source="G3HEFDCoS6vx8DGsJnJv-4" target="G3HEFDCoS6vx8DGsJnJv-13" edge="1">
          <mxGeometry width="50" height="50" relative="1" as="geometry">
            <mxPoint x="1310" y="640" as="sourcePoint" />
            <mxPoint x="1360" y="590" as="targetPoint" />
          </mxGeometry>
        </mxCell>
        <mxCell id="G3HEFDCoS6vx8DGsJnJv-15" value="Use" style="endArrow=open;endSize=12;dashed=1;html=1;rounded=0;exitX=0.5;exitY=1;exitDx=0;exitDy=0;entryX=0.5;entryY=0;entryDx=0;entryDy=0;" parent="1" source="G3HEFDCoS6vx8DGsJnJv-13" target="v10llTpg6LopYrafMSE0-28" edge="1">
          <mxGeometry width="160" relative="1" as="geometry">
            <mxPoint x="1250" y="610" as="sourcePoint" />
            <mxPoint x="1410" y="610" as="targetPoint" />
          </mxGeometry>
        </mxCell>
      </root>
    </mxGraphModel>
  </diagram>
  <diagram id="grLRuIqK26ggwkrmDjhA" name="Классов">
    <mxGraphModel dx="2098" dy="931" grid="1" gridSize="10" guides="1" tooltips="1" connect="1" arrows="1" fold="1" page="1" pageScale="1" pageWidth="2339" pageHeight="3300" math="0" shadow="0">
      <root>
        <mxCell id="0" />
        <mxCell id="1" parent="0" />
        <mxCell id="RhSrv0S_2733kVnjQrJt-5" value="Пользователь системы" style="swimlane;fontStyle=1;align=center;verticalAlign=top;childLayout=stackLayout;horizontal=1;startSize=26;horizontalStack=0;resizeParent=1;resizeParentMax=0;resizeLast=0;collapsible=1;marginBottom=0;" parent="1" vertex="1">
          <mxGeometry x="630" y="620" width="180" height="150" as="geometry" />
        </mxCell>
        <mxCell id="RhSrv0S_2733kVnjQrJt-6" value="+ Номер: int&#xa;+ Пароль: string&#xa;+ Логин: string&#xa;+ Дата регистрации: date" style="text;strokeColor=none;fillColor=none;align=left;verticalAlign=top;spacingLeft=4;spacingRight=4;overflow=hidden;rotatable=0;points=[[0,0.5],[1,0.5]];portConstraint=eastwest;" parent="RhSrv0S_2733kVnjQrJt-5" vertex="1">
          <mxGeometry y="26" width="180" height="64" as="geometry" />
        </mxCell>
        <mxCell id="RhSrv0S_2733kVnjQrJt-7" value="" style="line;strokeWidth=1;fillColor=none;align=left;verticalAlign=middle;spacingTop=-1;spacingLeft=3;spacingRight=3;rotatable=0;labelPosition=right;points=[];portConstraint=eastwest;strokeColor=inherit;" parent="RhSrv0S_2733kVnjQrJt-5" vertex="1">
          <mxGeometry y="90" width="180" height="8" as="geometry" />
        </mxCell>
        <mxCell id="RhSrv0S_2733kVnjQrJt-8" value="+ Подтверждение входа(): void&#xa;+ Авторизация(): void&#xa;+ Регистрация(): void" style="text;strokeColor=none;fillColor=none;align=left;verticalAlign=top;spacingLeft=4;spacingRight=4;overflow=hidden;rotatable=0;points=[[0,0.5],[1,0.5]];portConstraint=eastwest;" parent="RhSrv0S_2733kVnjQrJt-5" vertex="1">
          <mxGeometry y="98" width="180" height="52" as="geometry" />
        </mxCell>
        <mxCell id="RhSrv0S_2733kVnjQrJt-9" value="Руководитель подразделения" style="swimlane;fontStyle=1;align=center;verticalAlign=top;childLayout=stackLayout;horizontal=1;startSize=26;horizontalStack=0;resizeParent=1;resizeParentMax=0;resizeLast=0;collapsible=1;marginBottom=0;" parent="1" vertex="1">
          <mxGeometry x="630" y="350" width="220" height="124" as="geometry" />
        </mxCell>
        <mxCell id="RhSrv0S_2733kVnjQrJt-10" value="+ Номер: int&#xa;+ ФИО: string&#xa;+ Дата рождения: date&#xa;+ Наименование департамента: string" style="text;strokeColor=none;fillColor=none;align=left;verticalAlign=top;spacingLeft=4;spacingRight=4;overflow=hidden;rotatable=0;points=[[0,0.5],[1,0.5]];portConstraint=eastwest;" parent="RhSrv0S_2733kVnjQrJt-9" vertex="1">
          <mxGeometry y="26" width="220" height="64" as="geometry" />
        </mxCell>
        <mxCell id="RhSrv0S_2733kVnjQrJt-11" value="" style="line;strokeWidth=1;fillColor=none;align=left;verticalAlign=middle;spacingTop=-1;spacingLeft=3;spacingRight=3;rotatable=0;labelPosition=right;points=[];portConstraint=eastwest;strokeColor=inherit;" parent="RhSrv0S_2733kVnjQrJt-9" vertex="1">
          <mxGeometry y="90" width="220" height="8" as="geometry" />
        </mxCell>
        <mxCell id="RhSrv0S_2733kVnjQrJt-12" value="+ Заполнение заявки(): void" style="text;strokeColor=none;fillColor=none;align=left;verticalAlign=top;spacingLeft=4;spacingRight=4;overflow=hidden;rotatable=0;points=[[0,0.5],[1,0.5]];portConstraint=eastwest;" parent="RhSrv0S_2733kVnjQrJt-9" vertex="1">
          <mxGeometry y="98" width="220" height="26" as="geometry" />
        </mxCell>
        <mxCell id="RhSrv0S_2733kVnjQrJt-13" value="Директор" style="swimlane;fontStyle=1;align=center;verticalAlign=top;childLayout=stackLayout;horizontal=1;startSize=26;horizontalStack=0;resizeParent=1;resizeParentMax=0;resizeLast=0;collapsible=1;marginBottom=0;" parent="1" vertex="1">
          <mxGeometry x="240" y="390" width="240" height="124" as="geometry" />
        </mxCell>
        <mxCell id="RhSrv0S_2733kVnjQrJt-14" value="+ Номер: int&#xa;+ ФИО: string&#xa;+ Дата рождения: date&#xa;+ Номер руководителя: int" style="text;strokeColor=none;fillColor=none;align=left;verticalAlign=top;spacingLeft=4;spacingRight=4;overflow=hidden;rotatable=0;points=[[0,0.5],[1,0.5]];portConstraint=eastwest;" parent="RhSrv0S_2733kVnjQrJt-13" vertex="1">
          <mxGeometry y="26" width="240" height="64" as="geometry" />
        </mxCell>
        <mxCell id="RhSrv0S_2733kVnjQrJt-15" value="" style="line;strokeWidth=1;fillColor=none;align=left;verticalAlign=middle;spacingTop=-1;spacingLeft=3;spacingRight=3;rotatable=0;labelPosition=right;points=[];portConstraint=eastwest;strokeColor=inherit;" parent="RhSrv0S_2733kVnjQrJt-13" vertex="1">
          <mxGeometry y="90" width="240" height="8" as="geometry" />
        </mxCell>
        <mxCell id="RhSrv0S_2733kVnjQrJt-16" value="+ Визирование заявки(): void" style="text;strokeColor=none;fillColor=none;align=left;verticalAlign=top;spacingLeft=4;spacingRight=4;overflow=hidden;rotatable=0;points=[[0,0.5],[1,0.5]];portConstraint=eastwest;" parent="RhSrv0S_2733kVnjQrJt-13" vertex="1">
          <mxGeometry y="98" width="240" height="26" as="geometry" />
        </mxCell>
        <mxCell id="RhSrv0S_2733kVnjQrJt-17" value="Рекрутер" style="swimlane;fontStyle=1;align=center;verticalAlign=top;childLayout=stackLayout;horizontal=1;startSize=26;horizontalStack=0;resizeParent=1;resizeParentMax=0;resizeLast=0;collapsible=1;marginBottom=0;" parent="1" vertex="1">
          <mxGeometry x="950" y="500" width="260" height="150" as="geometry" />
        </mxCell>
        <mxCell id="RhSrv0S_2733kVnjQrJt-18" value="+ Номер: int&#xa;+ ФИО: string&#xa;+ Дата рождения: date&#xa;+ Номер директора: int" style="text;strokeColor=none;fillColor=none;align=left;verticalAlign=top;spacingLeft=4;spacingRight=4;overflow=hidden;rotatable=0;points=[[0,0.5],[1,0.5]];portConstraint=eastwest;" parent="RhSrv0S_2733kVnjQrJt-17" vertex="1">
          <mxGeometry y="26" width="260" height="64" as="geometry" />
        </mxCell>
        <mxCell id="RhSrv0S_2733kVnjQrJt-19" value="" style="line;strokeWidth=1;fillColor=none;align=left;verticalAlign=middle;spacingTop=-1;spacingLeft=3;spacingRight=3;rotatable=0;labelPosition=right;points=[];portConstraint=eastwest;strokeColor=inherit;" parent="RhSrv0S_2733kVnjQrJt-17" vertex="1">
          <mxGeometry y="90" width="260" height="8" as="geometry" />
        </mxCell>
        <mxCell id="RhSrv0S_2733kVnjQrJt-20" value="+ Анализирование заявки(): void&#xa;+ Оформление договора(): void&#xa;+ Формирование профиля должности(): void&#xa;" style="text;strokeColor=none;fillColor=none;align=left;verticalAlign=top;spacingLeft=4;spacingRight=4;overflow=hidden;rotatable=0;points=[[0,0.5],[1,0.5]];portConstraint=eastwest;" parent="RhSrv0S_2733kVnjQrJt-17" vertex="1">
          <mxGeometry y="98" width="260" height="52" as="geometry" />
        </mxCell>
        <mxCell id="6l8lZUlgRUo4UZI1caO5-1" value="Заявка" style="swimlane;fontStyle=1;align=center;verticalAlign=top;childLayout=stackLayout;horizontal=1;startSize=26;horizontalStack=0;resizeParent=1;resizeParentMax=0;resizeLast=0;collapsible=1;marginBottom=0;" parent="1" vertex="1">
          <mxGeometry x="945" y="230" width="210" height="190" as="geometry" />
        </mxCell>
        <mxCell id="6l8lZUlgRUo4UZI1caO5-2" value="+ Номер: int&#xa;+ Наименование: string&#xa;+ Наименование должности: string&#xa;+ Количество людей: int&#xa;+ Требования: string&#xa;+ ЗП: double&#xa;+ График: string&#xa;+ Дата создания заявки: date&#xa;+ Подпись руководителя: string&#xa;+ Подпись директора: string&#xa;+ Номер руководителя: int" style="text;strokeColor=none;fillColor=none;align=left;verticalAlign=top;spacingLeft=4;spacingRight=4;overflow=hidden;rotatable=0;points=[[0,0.5],[1,0.5]];portConstraint=eastwest;" parent="6l8lZUlgRUo4UZI1caO5-1" vertex="1">
          <mxGeometry y="26" width="210" height="164" as="geometry" />
        </mxCell>
        <mxCell id="vgWRopK6RWptlV_C3cKf-1" value="Договор" style="swimlane;fontStyle=1;align=center;verticalAlign=top;childLayout=stackLayout;horizontal=1;startSize=26;horizontalStack=0;resizeParent=1;resizeParentMax=0;resizeLast=0;collapsible=1;marginBottom=0;" parent="1" vertex="1">
          <mxGeometry x="305" y="925" width="190" height="150" as="geometry" />
        </mxCell>
        <mxCell id="vgWRopK6RWptlV_C3cKf-2" value="+ Номер: int&#xa;+ Наименование должности: string&#xa;+ ФИО: string&#xa;+ Статус договора: string&#xa;+ Личные данные: string&#xa;+ ЗП: double&#xa;+ Дата заключения: date&#xa;+ Номер соискателя:int" style="text;strokeColor=none;fillColor=none;align=left;verticalAlign=top;spacingLeft=4;spacingRight=4;overflow=hidden;rotatable=0;points=[[0,0.5],[1,0.5]];portConstraint=eastwest;" parent="vgWRopK6RWptlV_C3cKf-1" vertex="1">
          <mxGeometry y="26" width="190" height="124" as="geometry" />
        </mxCell>
        <mxCell id="vgWRopK6RWptlV_C3cKf-5" value="Резюме" style="swimlane;fontStyle=1;align=center;verticalAlign=top;childLayout=stackLayout;horizontal=1;startSize=26;horizontalStack=0;resizeParent=1;resizeParentMax=0;resizeLast=0;collapsible=1;marginBottom=0;" parent="1" vertex="1">
          <mxGeometry x="910" y="1030" width="160" height="120" as="geometry" />
        </mxCell>
        <mxCell id="vgWRopK6RWptlV_C3cKf-6" value="+ Номер: int&#xa;+ Образование: string&#xa;+ Опыт работы: string&#xa;+ Навыки: string&#xa;+ Ожидаемая ЗП: double&#xa;+ Номер соискателя: int" style="text;strokeColor=none;fillColor=none;align=left;verticalAlign=top;spacingLeft=4;spacingRight=4;overflow=hidden;rotatable=0;points=[[0,0.5],[1,0.5]];portConstraint=eastwest;" parent="vgWRopK6RWptlV_C3cKf-5" vertex="1">
          <mxGeometry y="26" width="160" height="94" as="geometry" />
        </mxCell>
        <mxCell id="3y1K5EhjMBI5wY930_on-5" value="Соискатель" style="swimlane;fontStyle=1;align=center;verticalAlign=top;childLayout=stackLayout;horizontal=1;startSize=26;horizontalStack=0;resizeParent=1;resizeParentMax=0;resizeLast=0;collapsible=1;marginBottom=0;" parent="1" vertex="1">
          <mxGeometry x="760" y="850" width="170" height="160" as="geometry" />
        </mxCell>
        <mxCell id="3y1K5EhjMBI5wY930_on-6" value="+ Номер: int&#xa;+ ФИО: string&#xa;+ Пол: string&#xa;+ Дата рождения: date&#xa;+ Номер рекрутера: int&#xa;&#xa;" style="text;strokeColor=none;fillColor=none;align=left;verticalAlign=top;spacingLeft=4;spacingRight=4;overflow=hidden;rotatable=0;points=[[0,0.5],[1,0.5]];portConstraint=eastwest;" parent="3y1K5EhjMBI5wY930_on-5" vertex="1">
          <mxGeometry y="26" width="170" height="84" as="geometry" />
        </mxCell>
        <mxCell id="3y1K5EhjMBI5wY930_on-7" value="" style="line;strokeWidth=1;fillColor=none;align=left;verticalAlign=middle;spacingTop=-1;spacingLeft=3;spacingRight=3;rotatable=0;labelPosition=right;points=[];portConstraint=eastwest;strokeColor=inherit;" parent="3y1K5EhjMBI5wY930_on-5" vertex="1">
          <mxGeometry y="110" width="170" height="8" as="geometry" />
        </mxCell>
        <mxCell id="3y1K5EhjMBI5wY930_on-8" value="Заполнение резюме(): void&#xa;Отклик(): void" style="text;strokeColor=none;fillColor=none;align=left;verticalAlign=top;spacingLeft=4;spacingRight=4;overflow=hidden;rotatable=0;points=[[0,0.5],[1,0.5]];portConstraint=eastwest;" parent="3y1K5EhjMBI5wY930_on-5" vertex="1">
          <mxGeometry y="118" width="170" height="42" as="geometry" />
        </mxCell>
        <mxCell id="4ZhYIowL7K9lO0AUYZGf-1" value="Администратор" style="swimlane;fontStyle=1;align=center;verticalAlign=top;childLayout=stackLayout;horizontal=1;startSize=26;horizontalStack=0;resizeParent=1;resizeParentMax=0;resizeLast=0;collapsible=1;marginBottom=0;" parent="1" vertex="1">
          <mxGeometry x="260" y="630" width="250" height="120" as="geometry" />
        </mxCell>
        <mxCell id="4ZhYIowL7K9lO0AUYZGf-2" value="+ Номер: int&#xa;+ ФИО: string&#xa;" style="text;strokeColor=none;fillColor=none;align=left;verticalAlign=top;spacingLeft=4;spacingRight=4;overflow=hidden;rotatable=0;points=[[0,0.5],[1,0.5]];portConstraint=eastwest;" parent="4ZhYIowL7K9lO0AUYZGf-1" vertex="1">
          <mxGeometry y="26" width="250" height="44" as="geometry" />
        </mxCell>
        <mxCell id="4ZhYIowL7K9lO0AUYZGf-3" value="" style="line;strokeWidth=1;fillColor=none;align=left;verticalAlign=middle;spacingTop=-1;spacingLeft=3;spacingRight=3;rotatable=0;labelPosition=right;points=[];portConstraint=eastwest;strokeColor=inherit;" parent="4ZhYIowL7K9lO0AUYZGf-1" vertex="1">
          <mxGeometry y="70" width="250" height="8" as="geometry" />
        </mxCell>
        <mxCell id="4ZhYIowL7K9lO0AUYZGf-4" value="+ Создание рекламы(): void&#xa;+ Добавление информации на сайт(): void" style="text;strokeColor=none;fillColor=none;align=left;verticalAlign=top;spacingLeft=4;spacingRight=4;overflow=hidden;rotatable=0;points=[[0,0.5],[1,0.5]];portConstraint=eastwest;" parent="4ZhYIowL7K9lO0AUYZGf-1" vertex="1">
          <mxGeometry y="78" width="250" height="42" as="geometry" />
        </mxCell>
        <mxCell id="f55CP0i_QbDdmlAOqS7y-2" value="Extends" style="endArrow=block;endSize=16;endFill=0;html=1;rounded=0;entryX=0.5;entryY=0;entryDx=0;entryDy=0;exitX=0.406;exitY=1.027;exitDx=0;exitDy=0;exitPerimeter=0;" parent="1" source="RhSrv0S_2733kVnjQrJt-12" target="RhSrv0S_2733kVnjQrJt-5" edge="1">
          <mxGeometry width="160" relative="1" as="geometry">
            <mxPoint x="720" y="530" as="sourcePoint" />
            <mxPoint x="900" y="610" as="targetPoint" />
          </mxGeometry>
        </mxCell>
        <mxCell id="f55CP0i_QbDdmlAOqS7y-5" value="Extends" style="endArrow=block;endSize=16;endFill=0;html=1;rounded=0;entryX=0.25;entryY=0;entryDx=0;entryDy=0;exitX=0.58;exitY=1.022;exitDx=0;exitDy=0;exitPerimeter=0;" parent="1" source="RhSrv0S_2733kVnjQrJt-16" target="RhSrv0S_2733kVnjQrJt-5" edge="1">
          <mxGeometry width="160" relative="1" as="geometry">
            <mxPoint x="379" y="520" as="sourcePoint" />
            <mxPoint x="750" y="570" as="targetPoint" />
            <Array as="points">
              <mxPoint x="379" y="540" />
              <mxPoint x="610" y="540" />
              <mxPoint x="610" y="580" />
              <mxPoint x="675" y="580" />
            </Array>
          </mxGeometry>
        </mxCell>
        <mxCell id="f55CP0i_QbDdmlAOqS7y-6" value="Extends" style="endArrow=block;endSize=16;endFill=0;html=1;rounded=0;exitX=0;exitY=0.5;exitDx=0;exitDy=0;entryX=1;entryY=0.5;entryDx=0;entryDy=0;" parent="1" source="RhSrv0S_2733kVnjQrJt-18" target="RhSrv0S_2733kVnjQrJt-6" edge="1">
          <mxGeometry width="160" relative="1" as="geometry">
            <mxPoint x="590" y="700" as="sourcePoint" />
            <mxPoint x="750" y="700" as="targetPoint" />
            <Array as="points">
              <mxPoint x="880" y="558" />
              <mxPoint x="880" y="678" />
            </Array>
          </mxGeometry>
        </mxCell>
        <mxCell id="f55CP0i_QbDdmlAOqS7y-8" value="1" style="text;html=1;strokeColor=none;fillColor=none;align=center;verticalAlign=middle;whiteSpace=wrap;rounded=0;" parent="1" vertex="1">
          <mxGeometry x="690" y="320" width="60" height="30" as="geometry" />
        </mxCell>
        <mxCell id="f55CP0i_QbDdmlAOqS7y-9" value="0..*" style="text;html=1;strokeColor=none;fillColor=none;align=center;verticalAlign=middle;whiteSpace=wrap;rounded=0;" parent="1" vertex="1">
          <mxGeometry x="1040" y="200" width="60" height="30" as="geometry" />
        </mxCell>
        <mxCell id="f55CP0i_QbDdmlAOqS7y-13" value="" style="endArrow=none;html=1;rounded=0;exitX=0.5;exitY=0;exitDx=0;exitDy=0;entryX=0.25;entryY=1;entryDx=0;entryDy=0;" parent="1" source="RhSrv0S_2733kVnjQrJt-17" target="f55CP0i_QbDdmlAOqS7y-14" edge="1">
          <mxGeometry width="50" height="50" relative="1" as="geometry">
            <mxPoint x="880" y="430" as="sourcePoint" />
            <mxPoint x="930" y="380" as="targetPoint" />
            <Array as="points">
              <mxPoint x="1080" y="450" />
              <mxPoint x="900" y="450" />
              <mxPoint x="900" y="320" />
              <mxPoint x="640" y="320" />
              <mxPoint x="385" y="320" />
            </Array>
          </mxGeometry>
        </mxCell>
        <mxCell id="f55CP0i_QbDdmlAOqS7y-14" value="1" style="text;html=1;strokeColor=none;fillColor=none;align=center;verticalAlign=middle;whiteSpace=wrap;rounded=0;" parent="1" vertex="1">
          <mxGeometry x="370" y="360" width="60" height="30" as="geometry" />
        </mxCell>
        <mxCell id="f55CP0i_QbDdmlAOqS7y-15" value="0..*" style="text;html=1;strokeColor=none;fillColor=none;align=center;verticalAlign=middle;whiteSpace=wrap;rounded=0;" parent="1" vertex="1">
          <mxGeometry x="1040" y="470" width="60" height="30" as="geometry" />
        </mxCell>
        <mxCell id="f55CP0i_QbDdmlAOqS7y-19" value="" style="endArrow=diamondThin;endFill=1;endSize=24;html=1;rounded=0;entryX=0.5;entryY=0;entryDx=0;entryDy=0;" parent="1" target="vgWRopK6RWptlV_C3cKf-5" edge="1">
          <mxGeometry width="160" relative="1" as="geometry">
            <mxPoint x="930" y="910" as="sourcePoint" />
            <mxPoint x="870" y="950" as="targetPoint" />
            <Array as="points">
              <mxPoint x="990" y="910" />
            </Array>
          </mxGeometry>
        </mxCell>
        <mxCell id="f55CP0i_QbDdmlAOqS7y-20" value="1" style="text;html=1;strokeColor=none;fillColor=none;align=center;verticalAlign=middle;whiteSpace=wrap;rounded=0;" parent="1" vertex="1">
          <mxGeometry x="910" y="910" width="60" height="30" as="geometry" />
        </mxCell>
        <mxCell id="f55CP0i_QbDdmlAOqS7y-21" value="1" style="text;html=1;strokeColor=none;fillColor=none;align=center;verticalAlign=middle;whiteSpace=wrap;rounded=0;" parent="1" vertex="1">
          <mxGeometry x="980" y="1000" width="60" height="30" as="geometry" />
        </mxCell>
        <mxCell id="f55CP0i_QbDdmlAOqS7y-22" value="" style="endArrow=diamondThin;endFill=1;endSize=24;html=1;rounded=0;entryX=0.5;entryY=0;entryDx=0;entryDy=0;exitX=0.25;exitY=1;exitDx=0;exitDy=0;" parent="1" source="f55CP0i_QbDdmlAOqS7y-8" target="6l8lZUlgRUo4UZI1caO5-1" edge="1">
          <mxGeometry width="160" relative="1" as="geometry">
            <mxPoint x="880" y="180" as="sourcePoint" />
            <mxPoint x="1060" y="210" as="targetPoint" />
            <Array as="points">
              <mxPoint x="705" y="190" />
              <mxPoint x="880" y="190" />
              <mxPoint x="1050" y="190" />
            </Array>
          </mxGeometry>
        </mxCell>
        <mxCell id="RKtk2O9qy0i1i8vutTtN-1" value="" style="endArrow=none;html=1;rounded=0;entryX=0;entryY=0.5;entryDx=0;entryDy=0;exitX=1;exitY=0.5;exitDx=0;exitDy=0;" parent="1" source="RhSrv0S_2733kVnjQrJt-14" target="RhSrv0S_2733kVnjQrJt-10" edge="1">
          <mxGeometry width="50" height="50" relative="1" as="geometry">
            <mxPoint x="810" y="530" as="sourcePoint" />
            <mxPoint x="860" y="480" as="targetPoint" />
            <Array as="points">
              <mxPoint x="590" y="448" />
              <mxPoint x="590" y="408" />
            </Array>
          </mxGeometry>
        </mxCell>
        <mxCell id="RKtk2O9qy0i1i8vutTtN-3" value="1" style="text;html=1;strokeColor=none;fillColor=none;align=center;verticalAlign=middle;whiteSpace=wrap;rounded=0;" parent="1" vertex="1">
          <mxGeometry x="590" y="380" width="60" height="30" as="geometry" />
        </mxCell>
        <mxCell id="RKtk2O9qy0i1i8vutTtN-4" value="0..*" style="text;html=1;strokeColor=none;fillColor=none;align=center;verticalAlign=middle;whiteSpace=wrap;rounded=0;" parent="1" vertex="1">
          <mxGeometry x="480" y="420" width="60" height="30" as="geometry" />
        </mxCell>
        <mxCell id="RKtk2O9qy0i1i8vutTtN-9" value="" style="endArrow=none;html=1;rounded=0;entryX=0.667;entryY=0.999;entryDx=0;entryDy=0;exitX=0.25;exitY=1;exitDx=0;exitDy=0;entryPerimeter=0;" parent="1" source="RKtk2O9qy0i1i8vutTtN-11" target="RKtk2O9qy0i1i8vutTtN-10" edge="1">
          <mxGeometry width="50" height="50" relative="1" as="geometry">
            <mxPoint x="800" y="840" as="sourcePoint" />
            <mxPoint x="870" y="730" as="targetPoint" />
            <Array as="points">
              <mxPoint x="805" y="800" />
              <mxPoint x="840" y="800" />
              <mxPoint x="840" y="740" />
              <mxPoint x="900" y="740" />
              <mxPoint x="900" y="640" />
              <mxPoint x="920" y="640" />
            </Array>
          </mxGeometry>
        </mxCell>
        <mxCell id="RKtk2O9qy0i1i8vutTtN-10" value="1" style="text;html=1;strokeColor=none;fillColor=none;align=center;verticalAlign=middle;whiteSpace=wrap;rounded=0;" parent="1" vertex="1">
          <mxGeometry x="910" y="610" width="60" height="30" as="geometry" />
        </mxCell>
        <mxCell id="RKtk2O9qy0i1i8vutTtN-11" value="0..*" style="text;html=1;strokeColor=none;fillColor=none;align=center;verticalAlign=middle;whiteSpace=wrap;rounded=0;" parent="1" vertex="1">
          <mxGeometry x="790" y="820" width="60" height="30" as="geometry" />
        </mxCell>
        <mxCell id="RKtk2O9qy0i1i8vutTtN-13" value="" style="endArrow=diamondThin;endFill=1;endSize=24;html=1;rounded=0;entryX=0.5;entryY=0;entryDx=0;entryDy=0;" parent="1" target="vgWRopK6RWptlV_C3cKf-1" edge="1">
          <mxGeometry width="160" relative="1" as="geometry">
            <mxPoint x="760" y="980" as="sourcePoint" />
            <mxPoint x="910" y="950" as="targetPoint" />
            <Array as="points">
              <mxPoint x="620" y="980" />
              <mxPoint x="620" y="880" />
              <mxPoint x="400" y="880" />
            </Array>
          </mxGeometry>
        </mxCell>
        <mxCell id="RKtk2O9qy0i1i8vutTtN-14" value="1" style="text;html=1;strokeColor=none;fillColor=none;align=center;verticalAlign=middle;whiteSpace=wrap;rounded=0;" parent="1" vertex="1">
          <mxGeometry x="715" y="955" width="60" height="30" as="geometry" />
        </mxCell>
        <mxCell id="RKtk2O9qy0i1i8vutTtN-15" value="1" style="text;html=1;strokeColor=none;fillColor=none;align=center;verticalAlign=middle;whiteSpace=wrap;rounded=0;" parent="1" vertex="1">
          <mxGeometry x="390" y="900" width="60" height="30" as="geometry" />
        </mxCell>
        <mxCell id="RKtk2O9qy0i1i8vutTtN-18" value="0..*" style="text;html=1;strokeColor=none;fillColor=none;align=center;verticalAlign=middle;whiteSpace=wrap;rounded=0;" parent="1" vertex="1">
          <mxGeometry x="715" y="890" width="60" height="30" as="geometry" />
        </mxCell>
        <mxCell id="gH23iASnGqxIGyDXd1Z6-1" value="Extends" style="endArrow=block;endSize=16;endFill=0;html=1;rounded=0;exitX=1;exitY=0.5;exitDx=0;exitDy=0;entryX=0;entryY=0.5;entryDx=0;entryDy=0;" parent="1" source="4ZhYIowL7K9lO0AUYZGf-2" target="RhSrv0S_2733kVnjQrJt-6" edge="1">
          <mxGeometry width="160" relative="1" as="geometry">
            <mxPoint x="570" y="690" as="sourcePoint" />
            <mxPoint x="730" y="690" as="targetPoint" />
          </mxGeometry>
        </mxCell>
        <mxCell id="gH23iASnGqxIGyDXd1Z6-3" value="Extends" style="endArrow=block;endSize=16;endFill=0;html=1;rounded=0;exitX=0;exitY=0.055;exitDx=0;exitDy=0;exitPerimeter=0;" parent="1" source="3y1K5EhjMBI5wY930_on-6" edge="1">
          <mxGeometry width="160" relative="1" as="geometry">
            <mxPoint x="750" y="880" as="sourcePoint" />
            <mxPoint x="708" y="770" as="targetPoint" />
            <Array as="points">
              <mxPoint x="708" y="881" />
            </Array>
          </mxGeometry>
        </mxCell>
        <mxCell id="460IIhtL_U0QyZdIcuwt-1" value="Профиль должности" style="swimlane;fontStyle=1;align=center;verticalAlign=top;childLayout=stackLayout;horizontal=1;startSize=26;horizontalStack=0;resizeParent=1;resizeParentMax=0;resizeLast=0;collapsible=1;marginBottom=0;whiteSpace=wrap;html=1;" parent="1" vertex="1">
          <mxGeometry x="1330" y="420" width="220" height="150" as="geometry" />
        </mxCell>
        <mxCell id="460IIhtL_U0QyZdIcuwt-2" value="+ Номер: int&lt;br&gt;+ Наименование должности: string&lt;br&gt;+ Краткое описание: string&lt;br&gt;+ ЗП: double&lt;br&gt;+ График: string&lt;br&gt;+ Требования: string&lt;br&gt;+ Опыт работы: string&lt;br&gt;+ Номер рекрутера" style="text;strokeColor=none;fillColor=none;align=left;verticalAlign=top;spacingLeft=4;spacingRight=4;overflow=hidden;rotatable=0;points=[[0,0.5],[1,0.5]];portConstraint=eastwest;whiteSpace=wrap;html=1;" parent="460IIhtL_U0QyZdIcuwt-1" vertex="1">
          <mxGeometry y="26" width="220" height="124" as="geometry" />
        </mxCell>
        <mxCell id="460IIhtL_U0QyZdIcuwt-5" value="" style="endArrow=none;html=1;rounded=0;entryX=0.006;entryY=0.63;entryDx=0;entryDy=0;entryPerimeter=0;exitX=0.173;exitY=0.993;exitDx=0;exitDy=0;exitPerimeter=0;" parent="1" source="460IIhtL_U0QyZdIcuwt-7" target="460IIhtL_U0QyZdIcuwt-2" edge="1">
          <mxGeometry width="50" height="50" relative="1" as="geometry">
            <mxPoint x="1210" y="564" as="sourcePoint" />
            <mxPoint x="1050" y="530" as="targetPoint" />
            <Array as="points">
              <mxPoint x="1270" y="560" />
              <mxPoint x="1270" y="524" />
            </Array>
          </mxGeometry>
        </mxCell>
        <mxCell id="460IIhtL_U0QyZdIcuwt-6" value="0..*" style="text;html=1;strokeColor=none;fillColor=none;align=center;verticalAlign=middle;whiteSpace=wrap;rounded=0;" parent="1" vertex="1">
          <mxGeometry x="1280" y="500" width="60" height="30" as="geometry" />
        </mxCell>
        <mxCell id="460IIhtL_U0QyZdIcuwt-7" value="0..*" style="text;html=1;strokeColor=none;fillColor=none;align=center;verticalAlign=middle;whiteSpace=wrap;rounded=0;" parent="1" vertex="1">
          <mxGeometry x="1200" y="530" width="60" height="30" as="geometry" />
        </mxCell>
        <mxCell id="460IIhtL_U0QyZdIcuwt-8" value="" style="endArrow=none;html=1;rounded=0;exitX=1.003;exitY=0.796;exitDx=0;exitDy=0;exitPerimeter=0;entryX=0.998;entryY=0.033;entryDx=0;entryDy=0;entryPerimeter=0;" parent="1" source="vgWRopK6RWptlV_C3cKf-2" target="RhSrv0S_2733kVnjQrJt-20" edge="1">
          <mxGeometry width="50" height="50" relative="1" as="geometry">
            <mxPoint x="1000" y="890" as="sourcePoint" />
            <mxPoint x="1210" y="634" as="targetPoint" />
            <Array as="points">
              <mxPoint x="800" y="1050" />
              <mxPoint x="800" y="1180" />
              <mxPoint x="1370" y="1180" />
              <mxPoint x="1370" y="900" />
              <mxPoint x="1370" y="600" />
              <mxPoint x="1320" y="600" />
            </Array>
          </mxGeometry>
        </mxCell>
        <mxCell id="460IIhtL_U0QyZdIcuwt-9" value="0..*" style="text;html=1;strokeColor=none;fillColor=none;align=center;verticalAlign=middle;whiteSpace=wrap;rounded=0;" parent="1" vertex="1">
          <mxGeometry x="490" y="1020" width="60" height="30" as="geometry" />
        </mxCell>
        <mxCell id="460IIhtL_U0QyZdIcuwt-10" value="1" style="text;html=1;strokeColor=none;fillColor=none;align=center;verticalAlign=middle;whiteSpace=wrap;rounded=0;" parent="1" vertex="1">
          <mxGeometry x="1190" y="620" width="60" height="30" as="geometry" />
        </mxCell>
        <mxCell id="rCCzljkq7B6d9EGPMJoK-1" value="Отклики" style="swimlane;fontStyle=1;align=center;verticalAlign=top;childLayout=stackLayout;horizontal=1;startSize=26;horizontalStack=0;resizeParent=1;resizeParentMax=0;resizeLast=0;collapsible=1;marginBottom=0;whiteSpace=wrap;html=1;" parent="1" vertex="1">
          <mxGeometry x="1050" y="790" width="210" height="80" as="geometry" />
        </mxCell>
        <mxCell id="rCCzljkq7B6d9EGPMJoK-2" value="+ Номер: int&lt;br&gt;+ Наименование должности: string&lt;br&gt;+ Номер соискателя: int" style="text;strokeColor=none;fillColor=none;align=left;verticalAlign=top;spacingLeft=4;spacingRight=4;overflow=hidden;rotatable=0;points=[[0,0.5],[1,0.5]];portConstraint=eastwest;whiteSpace=wrap;html=1;" parent="rCCzljkq7B6d9EGPMJoK-1" vertex="1">
          <mxGeometry y="26" width="210" height="54" as="geometry" />
        </mxCell>
        <mxCell id="rCCzljkq7B6d9EGPMJoK-5" value="" style="endArrow=diamondThin;endFill=1;endSize=24;html=1;rounded=0;exitX=1;exitY=0.108;exitDx=0;exitDy=0;exitPerimeter=0;entryX=0.5;entryY=0;entryDx=0;entryDy=0;" parent="1" source="3y1K5EhjMBI5wY930_on-6" target="rCCzljkq7B6d9EGPMJoK-1" edge="1">
          <mxGeometry width="160" relative="1" as="geometry">
            <mxPoint x="940" y="920" as="sourcePoint" />
            <mxPoint x="1040" y="960" as="targetPoint" />
            <Array as="points">
              <mxPoint x="1000" y="885" />
              <mxPoint x="1000" y="750" />
              <mxPoint x="1155" y="750" />
            </Array>
          </mxGeometry>
        </mxCell>
        <mxCell id="rCCzljkq7B6d9EGPMJoK-6" value="1" style="text;html=1;strokeColor=none;fillColor=none;align=center;verticalAlign=middle;whiteSpace=wrap;rounded=0;" parent="1" vertex="1">
          <mxGeometry x="910" y="860" width="60" height="30" as="geometry" />
        </mxCell>
        <mxCell id="rCCzljkq7B6d9EGPMJoK-7" value="0..*" style="text;html=1;strokeColor=none;fillColor=none;align=center;verticalAlign=middle;whiteSpace=wrap;rounded=0;" parent="1" vertex="1">
          <mxGeometry x="1100" y="760" width="60" height="30" as="geometry" />
        </mxCell>
        <mxCell id="rCCzljkq7B6d9EGPMJoK-8" value="" style="endArrow=none;html=1;rounded=0;entryX=1;entryY=0.5;entryDx=0;entryDy=0;exitX=1;exitY=0.5;exitDx=0;exitDy=0;" parent="1" source="rCCzljkq7B6d9EGPMJoK-2" target="RhSrv0S_2733kVnjQrJt-20" edge="1">
          <mxGeometry width="50" height="50" relative="1" as="geometry">
            <mxPoint x="1220" y="570" as="sourcePoint" />
            <mxPoint x="1341" y="534" as="targetPoint" />
            <Array as="points">
              <mxPoint x="1330" y="843" />
              <mxPoint x="1330" y="650" />
              <mxPoint x="1330" y="624" />
            </Array>
          </mxGeometry>
        </mxCell>
        <mxCell id="rCCzljkq7B6d9EGPMJoK-10" value="0..*" style="text;html=1;strokeColor=none;fillColor=none;align=center;verticalAlign=middle;whiteSpace=wrap;rounded=0;" parent="1" vertex="1">
          <mxGeometry x="1250" y="815" width="60" height="30" as="geometry" />
        </mxCell>
        <mxCell id="rCCzljkq7B6d9EGPMJoK-11" value="Конкурс" style="swimlane;fontStyle=1;align=center;verticalAlign=top;childLayout=stackLayout;horizontal=1;startSize=26;horizontalStack=0;resizeParent=1;resizeParentMax=0;resizeLast=0;collapsible=1;marginBottom=0;whiteSpace=wrap;html=1;" parent="1" vertex="1">
          <mxGeometry x="1430" y="800" width="210" height="140" as="geometry" />
        </mxCell>
        <mxCell id="rCCzljkq7B6d9EGPMJoK-12" value="+ Номер: int&lt;br&gt;+ Количество резюме: int&lt;br&gt;+ Количество вакантных мест: int&lt;br&gt;+ Номер профиля должности:int&lt;br&gt;+ Номер резюме: int&lt;br&gt;+ Оценка резюме: int&lt;br&gt;+ Результат:string" style="text;strokeColor=none;fillColor=none;align=left;verticalAlign=top;spacingLeft=4;spacingRight=4;overflow=hidden;rotatable=0;points=[[0,0.5],[1,0.5]];portConstraint=eastwest;whiteSpace=wrap;html=1;" parent="rCCzljkq7B6d9EGPMJoK-11" vertex="1">
          <mxGeometry y="26" width="210" height="114" as="geometry" />
        </mxCell>
        <mxCell id="rCCzljkq7B6d9EGPMJoK-15" value="" style="endArrow=diamondThin;endFill=1;endSize=24;html=1;rounded=0;entryX=0;entryY=0.5;entryDx=0;entryDy=0;exitX=1;exitY=0.5;exitDx=0;exitDy=0;" parent="1" source="vgWRopK6RWptlV_C3cKf-6" target="rCCzljkq7B6d9EGPMJoK-12" edge="1">
          <mxGeometry width="160" relative="1" as="geometry">
            <mxPoint x="940" y="920" as="sourcePoint" />
            <mxPoint x="1000" y="1040" as="targetPoint" />
            <Array as="points">
              <mxPoint x="1140" y="1103" />
              <mxPoint x="1290" y="1103" />
              <mxPoint x="1290" y="883" />
            </Array>
          </mxGeometry>
        </mxCell>
        <mxCell id="rCCzljkq7B6d9EGPMJoK-16" value="0..*" style="text;html=1;strokeColor=none;fillColor=none;align=center;verticalAlign=middle;whiteSpace=wrap;rounded=0;" parent="1" vertex="1">
          <mxGeometry x="1380" y="890" width="60" height="30" as="geometry" />
        </mxCell>
        <mxCell id="rCCzljkq7B6d9EGPMJoK-17" value="0..*" style="text;html=1;strokeColor=none;fillColor=none;align=center;verticalAlign=middle;whiteSpace=wrap;rounded=0;" parent="1" vertex="1">
          <mxGeometry x="1060" y="1075" width="60" height="30" as="geometry" />
        </mxCell>
        <mxCell id="rCCzljkq7B6d9EGPMJoK-18" value="" style="endArrow=none;html=1;rounded=0;entryX=1;entryY=0.5;entryDx=0;entryDy=0;exitX=1;exitY=0.5;exitDx=0;exitDy=0;" parent="1" source="rCCzljkq7B6d9EGPMJoK-12" target="460IIhtL_U0QyZdIcuwt-2" edge="1">
          <mxGeometry width="50" height="50" relative="1" as="geometry">
            <mxPoint x="1270" y="853" as="sourcePoint" />
            <mxPoint x="1220" y="634" as="targetPoint" />
            <Array as="points">
              <mxPoint x="1720" y="883" />
              <mxPoint x="1720" y="620" />
              <mxPoint x="1720" y="508" />
            </Array>
          </mxGeometry>
        </mxCell>
        <mxCell id="rCCzljkq7B6d9EGPMJoK-19" value="0..*" style="text;html=1;strokeColor=none;fillColor=none;align=center;verticalAlign=middle;whiteSpace=wrap;rounded=0;" parent="1" vertex="1">
          <mxGeometry x="1630" y="855" width="60" height="30" as="geometry" />
        </mxCell>
        <mxCell id="rCCzljkq7B6d9EGPMJoK-20" value="1" style="text;html=1;strokeColor=none;fillColor=none;align=center;verticalAlign=middle;whiteSpace=wrap;rounded=0;" parent="1" vertex="1">
          <mxGeometry x="1530" y="480" width="60" height="30" as="geometry" />
        </mxCell>
      </root>
    </mxGraphModel>
  </diagram>
  <diagram id="3r1ZEy8DdKVQcRk_r6p4" name="Состояний">
    <mxGraphModel dx="944" dy="419" grid="1" gridSize="10" guides="1" tooltips="1" connect="1" arrows="1" fold="1" page="1" pageScale="1" pageWidth="2339" pageHeight="3300" math="0" shadow="0">
      <root>
        <mxCell id="0" />
        <mxCell id="1" parent="0" />
        <mxCell id="FhlQ7g9pWadW0bnC8uDs-17" value="" style="ellipse;whiteSpace=wrap;html=1;aspect=fixed;fillColor=#FFFFFF;" parent="1" vertex="1">
          <mxGeometry x="310" y="715" width="70" height="70" as="geometry" />
        </mxCell>
        <mxCell id="FhlQ7g9pWadW0bnC8uDs-1" value="" style="ellipse;whiteSpace=wrap;html=1;aspect=fixed;fillColor=#000000;" parent="1" vertex="1">
          <mxGeometry x="430" y="60" width="60" height="60" as="geometry" />
        </mxCell>
        <mxCell id="FhlQ7g9pWadW0bnC8uDs-16" value="" style="ellipse;whiteSpace=wrap;html=1;aspect=fixed;fillColor=#000000;" parent="1" vertex="1">
          <mxGeometry x="315" y="720" width="60" height="60" as="geometry" />
        </mxCell>
        <mxCell id="zLjrHsDY0kGClZkr77ZR-3" value="Подача заявки в департамент управления персоналом" style="rounded=1;whiteSpace=wrap;html=1;" parent="1" vertex="1">
          <mxGeometry x="400" y="290" width="120" height="60" as="geometry" />
        </mxCell>
        <mxCell id="zLjrHsDY0kGClZkr77ZR-4" value="Заполнение заявки на подбор руководителем подразделения" style="rounded=1;whiteSpace=wrap;html=1;" parent="1" vertex="1">
          <mxGeometry x="400" y="170" width="120" height="60" as="geometry" />
        </mxCell>
        <mxCell id="zLjrHsDY0kGClZkr77ZR-5" value="" style="endArrow=classic;html=1;rounded=0;exitX=0.5;exitY=1;exitDx=0;exitDy=0;entryX=0.5;entryY=0;entryDx=0;entryDy=0;" parent="1" source="FhlQ7g9pWadW0bnC8uDs-1" target="zLjrHsDY0kGClZkr77ZR-4" edge="1">
          <mxGeometry width="50" height="50" relative="1" as="geometry">
            <mxPoint x="510" y="240" as="sourcePoint" />
            <mxPoint x="560" y="190" as="targetPoint" />
          </mxGeometry>
        </mxCell>
        <mxCell id="zLjrHsDY0kGClZkr77ZR-6" value="" style="endArrow=classic;html=1;rounded=0;exitX=0.5;exitY=1;exitDx=0;exitDy=0;entryX=0.5;entryY=0;entryDx=0;entryDy=0;" parent="1" source="zLjrHsDY0kGClZkr77ZR-4" target="zLjrHsDY0kGClZkr77ZR-3" edge="1">
          <mxGeometry width="50" height="50" relative="1" as="geometry">
            <mxPoint x="510" y="320" as="sourcePoint" />
            <mxPoint x="560" y="270" as="targetPoint" />
          </mxGeometry>
        </mxCell>
        <mxCell id="zLjrHsDY0kGClZkr77ZR-7" value="" style="endArrow=classic;html=1;rounded=0;exitX=0.5;exitY=1;exitDx=0;exitDy=0;entryX=0;entryY=0.5;entryDx=0;entryDy=0;" parent="1" source="zLjrHsDY0kGClZkr77ZR-3" target="zLjrHsDY0kGClZkr77ZR-8" edge="1">
          <mxGeometry width="50" height="50" relative="1" as="geometry">
            <mxPoint x="510" y="400" as="sourcePoint" />
            <mxPoint x="430" y="430" as="targetPoint" />
          </mxGeometry>
        </mxCell>
        <mxCell id="zLjrHsDY0kGClZkr77ZR-8" value="Заявка была визирована ?" style="rhombus;whiteSpace=wrap;html=1;direction=south;" parent="1" vertex="1">
          <mxGeometry x="410" y="410" width="100" height="100" as="geometry" />
        </mxCell>
        <mxCell id="zLjrHsDY0kGClZkr77ZR-9" value="" style="endArrow=classic;html=1;rounded=0;exitX=0.5;exitY=1;exitDx=0;exitDy=0;" parent="1" source="zLjrHsDY0kGClZkr77ZR-8" edge="1">
          <mxGeometry width="50" height="50" relative="1" as="geometry">
            <mxPoint x="510" y="570" as="sourcePoint" />
            <mxPoint x="460" y="140" as="targetPoint" />
            <Array as="points">
              <mxPoint x="290" y="460" />
              <mxPoint x="290" y="330" />
              <mxPoint x="290" y="140" />
            </Array>
          </mxGeometry>
        </mxCell>
        <mxCell id="zLjrHsDY0kGClZkr77ZR-12" value="Анализирование заявки" style="shape=note;whiteSpace=wrap;html=1;backgroundOutline=1;darkOpacity=0.05;" parent="1" vertex="1">
          <mxGeometry x="610" y="330" width="130" height="90" as="geometry" />
        </mxCell>
        <mxCell id="zLjrHsDY0kGClZkr77ZR-13" value="" style="endArrow=none;dashed=1;html=1;rounded=0;entryX=0;entryY=0.5;entryDx=0;entryDy=0;entryPerimeter=0;" parent="1" target="zLjrHsDY0kGClZkr77ZR-12" edge="1">
          <mxGeometry width="50" height="50" relative="1" as="geometry">
            <mxPoint x="460" y="375" as="sourcePoint" />
            <mxPoint x="560" y="340" as="targetPoint" />
          </mxGeometry>
        </mxCell>
        <mxCell id="zLjrHsDY0kGClZkr77ZR-14" value="Нет" style="text;html=1;strokeColor=none;fillColor=none;align=center;verticalAlign=middle;whiteSpace=wrap;rounded=0;" parent="1" vertex="1">
          <mxGeometry x="340" y="430" width="60" height="30" as="geometry" />
        </mxCell>
        <mxCell id="zLjrHsDY0kGClZkr77ZR-15" value="Передача заявки рекрутеру" style="rounded=1;whiteSpace=wrap;html=1;" parent="1" vertex="1">
          <mxGeometry x="520" y="520" width="120" height="60" as="geometry" />
        </mxCell>
        <mxCell id="zLjrHsDY0kGClZkr77ZR-16" value="" style="endArrow=classic;html=1;rounded=0;exitX=0.5;exitY=0;exitDx=0;exitDy=0;entryX=0.5;entryY=0;entryDx=0;entryDy=0;" parent="1" source="zLjrHsDY0kGClZkr77ZR-8" target="zLjrHsDY0kGClZkr77ZR-15" edge="1">
          <mxGeometry width="50" height="50" relative="1" as="geometry">
            <mxPoint x="470" y="550" as="sourcePoint" />
            <mxPoint x="520" y="500" as="targetPoint" />
            <Array as="points">
              <mxPoint x="580" y="460" />
            </Array>
          </mxGeometry>
        </mxCell>
        <mxCell id="zLjrHsDY0kGClZkr77ZR-17" value="Да" style="text;html=1;strokeColor=none;fillColor=none;align=center;verticalAlign=middle;whiteSpace=wrap;rounded=0;" parent="1" vertex="1">
          <mxGeometry x="510" y="430" width="60" height="30" as="geometry" />
        </mxCell>
        <mxCell id="zLjrHsDY0kGClZkr77ZR-18" value="Отказ по определённым причинам" style="shape=note;whiteSpace=wrap;html=1;backgroundOutline=1;darkOpacity=0.05;" parent="1" vertex="1">
          <mxGeometry x="80" y="230" width="120" height="90" as="geometry" />
        </mxCell>
        <mxCell id="zLjrHsDY0kGClZkr77ZR-19" value="" style="endArrow=none;dashed=1;html=1;rounded=0;exitX=0;exitY=0;exitDx=120;exitDy=60;exitPerimeter=0;" parent="1" source="zLjrHsDY0kGClZkr77ZR-18" edge="1">
          <mxGeometry width="50" height="50" relative="1" as="geometry">
            <mxPoint x="470" y="360" as="sourcePoint" />
            <mxPoint x="290" y="290" as="targetPoint" />
          </mxGeometry>
        </mxCell>
        <mxCell id="zLjrHsDY0kGClZkr77ZR-20" value="Обработка заявки рекрутёром" style="rounded=1;whiteSpace=wrap;html=1;" parent="1" vertex="1">
          <mxGeometry x="520" y="630" width="120" height="60" as="geometry" />
        </mxCell>
        <mxCell id="zLjrHsDY0kGClZkr77ZR-21" value="" style="endArrow=classic;html=1;rounded=0;exitX=0.5;exitY=1;exitDx=0;exitDy=0;entryX=0.5;entryY=0;entryDx=0;entryDy=0;" parent="1" source="zLjrHsDY0kGClZkr77ZR-15" target="zLjrHsDY0kGClZkr77ZR-20" edge="1">
          <mxGeometry width="50" height="50" relative="1" as="geometry">
            <mxPoint x="560" y="590" as="sourcePoint" />
            <mxPoint x="610" y="540" as="targetPoint" />
          </mxGeometry>
        </mxCell>
        <mxCell id="zLjrHsDY0kGClZkr77ZR-22" value="" style="endArrow=classic;html=1;rounded=0;exitX=0.5;exitY=1;exitDx=0;exitDy=0;entryX=1;entryY=0.5;entryDx=0;entryDy=0;" parent="1" source="zLjrHsDY0kGClZkr77ZR-20" target="FhlQ7g9pWadW0bnC8uDs-17" edge="1">
          <mxGeometry width="50" height="50" relative="1" as="geometry">
            <mxPoint x="560" y="670" as="sourcePoint" />
            <mxPoint x="610" y="620" as="targetPoint" />
            <Array as="points">
              <mxPoint x="580" y="750" />
            </Array>
          </mxGeometry>
        </mxCell>
        <mxCell id="zLjrHsDY0kGClZkr77ZR-23" value="" style="endArrow=none;dashed=1;html=1;rounded=0;" parent="1" target="zLjrHsDY0kGClZkr77ZR-24" edge="1">
          <mxGeometry width="50" height="50" relative="1" as="geometry">
            <mxPoint x="440" y="750" as="sourcePoint" />
            <mxPoint x="280" y="640" as="targetPoint" />
            <Array as="points">
              <mxPoint x="440" y="635" />
            </Array>
          </mxGeometry>
        </mxCell>
        <mxCell id="zLjrHsDY0kGClZkr77ZR-24" value="Переход к формированию профилей должностей" style="shape=note;whiteSpace=wrap;html=1;backgroundOutline=1;darkOpacity=0.05;" parent="1" vertex="1">
          <mxGeometry x="140" y="590" width="120" height="90" as="geometry" />
        </mxCell>
        <mxCell id="zLjrHsDY0kGClZkr77ZR-26" value="Анализирование требований и условий подбора" style="shape=note;whiteSpace=wrap;html=1;backgroundOutline=1;darkOpacity=0.05;" parent="1" vertex="1">
          <mxGeometry x="700" y="550" width="150" height="100" as="geometry" />
        </mxCell>
        <mxCell id="zLjrHsDY0kGClZkr77ZR-27" value="" style="endArrow=none;dashed=1;html=1;rounded=0;entryX=0;entryY=0.5;entryDx=0;entryDy=0;entryPerimeter=0;" parent="1" target="zLjrHsDY0kGClZkr77ZR-26" edge="1">
          <mxGeometry width="50" height="50" relative="1" as="geometry">
            <mxPoint x="580" y="600" as="sourcePoint" />
            <mxPoint x="740" y="510" as="targetPoint" />
          </mxGeometry>
        </mxCell>
        <mxCell id="zLjrHsDY0kGClZkr77ZR-28" value="" style="endArrow=classic;html=1;rounded=0;exitX=1;exitY=0.25;exitDx=0;exitDy=0;entryX=1;entryY=0.75;entryDx=0;entryDy=0;" parent="1" source="zLjrHsDY0kGClZkr77ZR-4" target="zLjrHsDY0kGClZkr77ZR-4" edge="1">
          <mxGeometry width="50" height="50" relative="1" as="geometry">
            <mxPoint x="570" y="320" as="sourcePoint" />
            <mxPoint x="620" y="270" as="targetPoint" />
            <Array as="points">
              <mxPoint x="660" y="185" />
              <mxPoint x="660" y="200" />
              <mxPoint x="660" y="215" />
            </Array>
          </mxGeometry>
        </mxCell>
        <mxCell id="zLjrHsDY0kGClZkr77ZR-29" value="Не все данные введены" style="text;html=1;strokeColor=none;fillColor=none;align=center;verticalAlign=middle;whiteSpace=wrap;rounded=0;" parent="1" vertex="1">
          <mxGeometry x="520" y="160" width="140" height="30" as="geometry" />
        </mxCell>
      </root>
    </mxGraphModel>
  </diagram>
  <diagram id="U4jsBl6CE8LJR_eUKZbp" name="LABA4">
    <mxGraphModel dx="1716" dy="762" grid="1" gridSize="10" guides="1" tooltips="1" connect="1" arrows="1" fold="1" page="1" pageScale="1" pageWidth="2339" pageHeight="3300" math="0" shadow="0">
      <root>
        <mxCell id="0" />
        <mxCell id="1" parent="0" />
        <mxCell id="npJc-YGdQk0jCoHaoylc-1" value="@Bean&#xa;UserBean&#xa;" style="swimlane;fontStyle=1;align=center;verticalAlign=top;childLayout=stackLayout;horizontal=1;startSize=40;horizontalStack=0;resizeParent=1;resizeParentMax=0;resizeLast=0;collapsible=1;marginBottom=0;" parent="1" vertex="1">
          <mxGeometry x="520" y="520" width="190" height="360" as="geometry" />
        </mxCell>
        <mxCell id="npJc-YGdQk0jCoHaoylc-2" value="+ UserId: int&#xa;+ UserName: string&#xa;+ Email: string&#xa;+ Password: string&#xa;+ RoleId: int&#xa;+ NumberTreaty: int&#xa;+ NumberResume: int&#xa;+ NumberResponse: int&#xa;+ NumberPositionProfile: int&#xa;+ NumberContest: int&#xa;+ NumberApplication: int" style="text;strokeColor=none;fillColor=none;align=left;verticalAlign=top;spacingLeft=4;spacingRight=4;overflow=hidden;rotatable=0;points=[[0,0.5],[1,0.5]];portConstraint=eastwest;" parent="npJc-YGdQk0jCoHaoylc-1" vertex="1">
          <mxGeometry y="40" width="190" height="170" as="geometry" />
        </mxCell>
        <mxCell id="npJc-YGdQk0jCoHaoylc-3" value="" style="line;strokeWidth=1;fillColor=none;align=left;verticalAlign=middle;spacingTop=-1;spacingLeft=3;spacingRight=3;rotatable=0;labelPosition=right;points=[];portConstraint=eastwest;strokeColor=inherit;" parent="npJc-YGdQk0jCoHaoylc-1" vertex="1">
          <mxGeometry y="210" width="190" height="8" as="geometry" />
        </mxCell>
        <mxCell id="npJc-YGdQk0jCoHaoylc-4" value="+getUserId(): int&#xa;+setUserId(int): int&#xa;+getUserName(): string&#xa;+getEmail(): string&#xa;+setEmail(string): void&#xa;+getPassword(): string&#xa;+getRole(): void&#xa;+setRole(Role): void&#xa;+getAuthorize(): Collection&lt;Role&gt;&#xa;" style="text;strokeColor=none;fillColor=none;align=left;verticalAlign=top;spacingLeft=4;spacingRight=4;overflow=hidden;rotatable=0;points=[[0,0.5],[1,0.5]];portConstraint=eastwest;" parent="npJc-YGdQk0jCoHaoylc-1" vertex="1">
          <mxGeometry y="218" width="190" height="142" as="geometry" />
        </mxCell>
        <mxCell id="npJc-YGdQk0jCoHaoylc-17" value="&lt;&lt;enum&gt;&gt;&#xa;ApplicationFK" style="swimlane;fontStyle=1;align=center;verticalAlign=top;childLayout=stackLayout;horizontal=1;startSize=40;horizontalStack=0;resizeParent=1;resizeParentMax=0;resizeLast=0;collapsible=1;marginBottom=0;" parent="1" vertex="1">
          <mxGeometry x="1110" y="260" width="210" height="194" as="geometry" />
        </mxCell>
        <mxCell id="npJc-YGdQk0jCoHaoylc-18" value="+ Number: int&#xa;+ Name: string&#xa;+ Job title: string&#xa;+ Number of people: int&#xa;+ Requirements: string&#xa;+ RFP: double&#xa;+ Graph: string&#xa;+ Application creation date: date&#xa;+ ManagerSignature: string&#xa;+ DirectorSignature: string" style="text;strokeColor=none;fillColor=none;align=left;verticalAlign=top;spacingLeft=4;spacingRight=4;overflow=hidden;rotatable=0;points=[[0,0.5],[1,0.5]];portConstraint=eastwest;" parent="npJc-YGdQk0jCoHaoylc-17" vertex="1">
          <mxGeometry y="40" width="210" height="154" as="geometry" />
        </mxCell>
        <mxCell id="npJc-YGdQk0jCoHaoylc-19" value="&lt;&lt;enum&gt;&gt;&#xa;TreatyFK" style="swimlane;fontStyle=1;align=center;verticalAlign=top;childLayout=stackLayout;horizontal=1;startSize=40;horizontalStack=0;resizeParent=1;resizeParentMax=0;resizeLast=0;collapsible=1;marginBottom=0;" parent="1" vertex="1">
          <mxGeometry x="590" y="970" width="190" height="154" as="geometry" />
        </mxCell>
        <mxCell id="npJc-YGdQk0jCoHaoylc-20" value="+ Number: int&#xa;+ Job title: string&#xa;+ full name: string&#xa;+ Agreement status: string&#xa;+ Personal data: string&#xa;+ RFP: double&#xa;+ Conclusion date: date" style="text;strokeColor=none;fillColor=none;align=left;verticalAlign=top;spacingLeft=4;spacingRight=4;overflow=hidden;rotatable=0;points=[[0,0.5],[1,0.5]];portConstraint=eastwest;" parent="npJc-YGdQk0jCoHaoylc-19" vertex="1">
          <mxGeometry y="40" width="190" height="114" as="geometry" />
        </mxCell>
        <mxCell id="npJc-YGdQk0jCoHaoylc-21" value="&lt;&lt;enum&gt;&gt;&#xa;ResumeFK" style="swimlane;fontStyle=1;align=center;verticalAlign=top;childLayout=stackLayout;horizontal=1;startSize=40;horizontalStack=0;resizeParent=1;resizeParentMax=0;resizeLast=0;collapsible=1;marginBottom=0;" parent="1" vertex="1">
          <mxGeometry x="880" y="1000" width="170" height="124" as="geometry" />
        </mxCell>
        <mxCell id="npJc-YGdQk0jCoHaoylc-22" value="+ Number: int&#xa;+ Education: string&#xa;+ Experience: string&#xa;+ Skills: string&#xa;+ Expected salary: double" style="text;strokeColor=none;fillColor=none;align=left;verticalAlign=top;spacingLeft=4;spacingRight=4;overflow=hidden;rotatable=0;points=[[0,0.5],[1,0.5]];portConstraint=eastwest;" parent="npJc-YGdQk0jCoHaoylc-21" vertex="1">
          <mxGeometry y="40" width="170" height="84" as="geometry" />
        </mxCell>
        <mxCell id="npJc-YGdQk0jCoHaoylc-55" value="&amp;lt;&amp;lt;enum&amp;gt;&amp;gt;&lt;br&gt;PositionProfileFK" style="swimlane;fontStyle=1;align=center;verticalAlign=top;childLayout=stackLayout;horizontal=1;startSize=40;horizontalStack=0;resizeParent=1;resizeParentMax=0;resizeLast=0;collapsible=1;marginBottom=0;whiteSpace=wrap;html=1;" parent="1" vertex="1">
          <mxGeometry x="1240" y="720" width="220" height="154" as="geometry" />
        </mxCell>
        <mxCell id="npJc-YGdQk0jCoHaoylc-56" value="&lt;div&gt;+ Number: int&lt;/div&gt;&lt;div&gt;+ Job title: string&lt;/div&gt;&lt;div&gt;+ Short description: string&lt;/div&gt;&lt;div&gt;+ RFP: double&lt;/div&gt;&lt;div&gt;+ Graph: string&lt;/div&gt;&lt;div&gt;+ Requirements: string&lt;/div&gt;&lt;div&gt;+ Experience: string&lt;/div&gt;" style="text;strokeColor=none;fillColor=none;align=left;verticalAlign=top;spacingLeft=4;spacingRight=4;overflow=hidden;rotatable=0;points=[[0,0.5],[1,0.5]];portConstraint=eastwest;whiteSpace=wrap;html=1;" parent="npJc-YGdQk0jCoHaoylc-55" vertex="1">
          <mxGeometry y="40" width="220" height="114" as="geometry" />
        </mxCell>
        <mxCell id="npJc-YGdQk0jCoHaoylc-63" value="&amp;lt;&amp;lt;enum&amp;gt;&amp;gt;&lt;br&gt;ResponsesFK" style="swimlane;fontStyle=1;align=center;verticalAlign=top;childLayout=stackLayout;horizontal=1;startSize=40;horizontalStack=0;resizeParent=1;resizeParentMax=0;resizeLast=0;collapsible=1;marginBottom=0;whiteSpace=wrap;html=1;" parent="1" vertex="1">
          <mxGeometry x="1120" y="930" width="210" height="84" as="geometry" />
        </mxCell>
        <mxCell id="npJc-YGdQk0jCoHaoylc-64" value="&lt;div&gt;+ Number: int&lt;/div&gt;&lt;div&gt;+ Job title: string&lt;/div&gt;&lt;div&gt;&lt;br&gt;&lt;/div&gt;" style="text;strokeColor=none;fillColor=none;align=left;verticalAlign=top;spacingLeft=4;spacingRight=4;overflow=hidden;rotatable=0;points=[[0,0.5],[1,0.5]];portConstraint=eastwest;whiteSpace=wrap;html=1;" parent="npJc-YGdQk0jCoHaoylc-63" vertex="1">
          <mxGeometry y="40" width="210" height="44" as="geometry" />
        </mxCell>
        <mxCell id="npJc-YGdQk0jCoHaoylc-70" value="&amp;lt;&amp;lt;enum&amp;gt;&amp;gt;&lt;br&gt;ContestFK" style="swimlane;fontStyle=1;align=center;verticalAlign=top;childLayout=stackLayout;horizontal=1;startSize=36;horizontalStack=0;resizeParent=1;resizeParentMax=0;resizeLast=0;collapsible=1;marginBottom=0;whiteSpace=wrap;html=1;" parent="1" vertex="1">
          <mxGeometry x="1190" y="534" width="210" height="150" as="geometry" />
        </mxCell>
        <mxCell id="npJc-YGdQk0jCoHaoylc-71" value="&lt;div&gt;+ Number: int&lt;/div&gt;&lt;div&gt;+ Number of resumes: int&lt;/div&gt;&lt;div&gt;+ Number of vacancies: int&lt;/div&gt;&lt;div&gt;+ Position profile number:int&lt;/div&gt;&lt;div&gt;+ Resume number: int&lt;/div&gt;&lt;div&gt;+ CV score: int&lt;/div&gt;&lt;div&gt;+ Result:string&lt;/div&gt;" style="text;strokeColor=none;fillColor=none;align=left;verticalAlign=top;spacingLeft=4;spacingRight=4;overflow=hidden;rotatable=0;points=[[0,0.5],[1,0.5]];portConstraint=eastwest;whiteSpace=wrap;html=1;" parent="npJc-YGdQk0jCoHaoylc-70" vertex="1">
          <mxGeometry y="36" width="210" height="114" as="geometry" />
        </mxCell>
        <mxCell id="npJc-YGdQk0jCoHaoylc-79" value="&amp;lt;&amp;lt;enum&amp;gt;&amp;gt;&lt;br&gt;RoleFK" style="swimlane;fontStyle=1;align=center;verticalAlign=top;childLayout=stackLayout;horizontal=1;startSize=40;horizontalStack=0;resizeParent=1;resizeParentMax=0;resizeLast=0;collapsible=1;marginBottom=0;whiteSpace=wrap;html=1;" parent="1" vertex="1">
          <mxGeometry x="830" y="465" width="160" height="80" as="geometry" />
        </mxCell>
        <mxCell id="npJc-YGdQk0jCoHaoylc-80" value="+RoleId: int&lt;br&gt;+RoleName: string" style="text;strokeColor=none;fillColor=none;align=left;verticalAlign=top;spacingLeft=4;spacingRight=4;overflow=hidden;rotatable=0;points=[[0,0.5],[1,0.5]];portConstraint=eastwest;whiteSpace=wrap;html=1;" parent="npJc-YGdQk0jCoHaoylc-79" vertex="1">
          <mxGeometry y="40" width="160" height="40" as="geometry" />
        </mxCell>
        <mxCell id="npJc-YGdQk0jCoHaoylc-83" value="" style="endArrow=diamondThin;endFill=0;endSize=24;html=1;rounded=0;entryX=0;entryY=0.5;entryDx=0;entryDy=0;" parent="1" target="npJc-YGdQk0jCoHaoylc-79" edge="1">
          <mxGeometry width="160" relative="1" as="geometry">
            <mxPoint x="710" y="600" as="sourcePoint" />
            <mxPoint x="710" y="630" as="targetPoint" />
            <Array as="points">
              <mxPoint x="770" y="600" />
              <mxPoint x="770" y="505" />
            </Array>
          </mxGeometry>
        </mxCell>
        <mxCell id="npJc-YGdQk0jCoHaoylc-84" value="aggregateRoleFK" style="text;html=1;strokeColor=none;fillColor=none;align=center;verticalAlign=middle;whiteSpace=wrap;rounded=0;" parent="1" vertex="1">
          <mxGeometry x="790" y="560" width="60" height="30" as="geometry" />
        </mxCell>
        <mxCell id="npJc-YGdQk0jCoHaoylc-85" value="&amp;lt;&amp;lt;interface&amp;gt;&amp;gt;&lt;br&gt;User" style="swimlane;fontStyle=1;align=center;verticalAlign=top;childLayout=stackLayout;horizontal=1;startSize=36;horizontalStack=0;resizeParent=1;resizeParentMax=0;resizeLast=0;collapsible=1;marginBottom=0;whiteSpace=wrap;html=1;" parent="1" vertex="1">
          <mxGeometry x="220" y="564" width="160" height="110" as="geometry" />
        </mxCell>
        <mxCell id="npJc-YGdQk0jCoHaoylc-86" value="+getEmail(): string&lt;br&gt;+getRole(): int&lt;br&gt;+setEmail(string): void&lt;br&gt;+setRole(Role): void" style="text;strokeColor=none;fillColor=none;align=left;verticalAlign=top;spacingLeft=4;spacingRight=4;overflow=hidden;rotatable=0;points=[[0,0.5],[1,0.5]];portConstraint=eastwest;whiteSpace=wrap;html=1;" parent="npJc-YGdQk0jCoHaoylc-85" vertex="1">
          <mxGeometry y="36" width="160" height="74" as="geometry" />
        </mxCell>
        <mxCell id="npJc-YGdQk0jCoHaoylc-89" value="" style="endArrow=block;dashed=1;endFill=0;endSize=12;html=1;rounded=0;entryX=1;entryY=0.5;entryDx=0;entryDy=0;" parent="1" target="npJc-YGdQk0jCoHaoylc-86" edge="1">
          <mxGeometry width="160" relative="1" as="geometry">
            <mxPoint x="520" y="637" as="sourcePoint" />
            <mxPoint x="710" y="630" as="targetPoint" />
            <Array as="points">
              <mxPoint x="480" y="637" />
            </Array>
          </mxGeometry>
        </mxCell>
        <mxCell id="npJc-YGdQk0jCoHaoylc-90" value="Implement" style="text;html=1;strokeColor=none;fillColor=none;align=center;verticalAlign=middle;whiteSpace=wrap;rounded=0;" parent="1" vertex="1">
          <mxGeometry x="420" y="614" width="60" height="30" as="geometry" />
        </mxCell>
        <mxCell id="npJc-YGdQk0jCoHaoylc-91" value="&amp;lt;&amp;lt;interface&amp;gt;&amp;gt;&lt;br&gt;UserDetails" style="swimlane;fontStyle=1;align=center;verticalAlign=top;childLayout=stackLayout;horizontal=1;startSize=40;horizontalStack=0;resizeParent=1;resizeParentMax=0;resizeLast=0;collapsible=1;marginBottom=0;whiteSpace=wrap;html=1;" parent="1" vertex="1">
          <mxGeometry x="205" y="780" width="190" height="110" as="geometry" />
        </mxCell>
        <mxCell id="npJc-YGdQk0jCoHaoylc-92" value="+getAuthorize(): Collection&amp;lt;?&amp;gt;&lt;br&gt;+getPassword(): string&lt;br&gt;+getUserName(): string&lt;br&gt;+isAccountNotLocked():boolean" style="text;strokeColor=none;fillColor=none;align=left;verticalAlign=top;spacingLeft=4;spacingRight=4;overflow=hidden;rotatable=0;points=[[0,0.5],[1,0.5]];portConstraint=eastwest;whiteSpace=wrap;html=1;" parent="npJc-YGdQk0jCoHaoylc-91" vertex="1">
          <mxGeometry y="40" width="190" height="70" as="geometry" />
        </mxCell>
        <mxCell id="npJc-YGdQk0jCoHaoylc-95" value="" style="endArrow=block;dashed=1;endFill=0;endSize=12;html=1;rounded=0;entryX=0.5;entryY=0;entryDx=0;entryDy=0;exitX=0.5;exitY=1;exitDx=0;exitDy=0;" parent="1" source="npJc-YGdQk0jCoHaoylc-85" target="npJc-YGdQk0jCoHaoylc-91" edge="1">
          <mxGeometry width="160" relative="1" as="geometry">
            <mxPoint x="300" y="680" as="sourcePoint" />
            <mxPoint x="390" y="647" as="targetPoint" />
            <Array as="points" />
          </mxGeometry>
        </mxCell>
        <mxCell id="npJc-YGdQk0jCoHaoylc-96" value="Implement" style="text;html=1;strokeColor=none;fillColor=none;align=center;verticalAlign=middle;whiteSpace=wrap;rounded=0;" parent="1" vertex="1">
          <mxGeometry x="310" y="720" width="60" height="30" as="geometry" />
        </mxCell>
        <mxCell id="npJc-YGdQk0jCoHaoylc-97" value="&amp;lt;&amp;lt;interface&amp;gt;&amp;gt;&lt;br&gt;UserRepository" style="swimlane;fontStyle=1;align=center;verticalAlign=top;childLayout=stackLayout;horizontal=1;startSize=40;horizontalStack=0;resizeParent=1;resizeParentMax=0;resizeLast=0;collapsible=1;marginBottom=0;whiteSpace=wrap;html=1;" parent="1" vertex="1">
          <mxGeometry x="220" y="350" width="160" height="110" as="geometry" />
        </mxCell>
        <mxCell id="npJc-YGdQk0jCoHaoylc-98" value="+create(int,string): User&lt;br&gt;+update(int,string, newString): User&lt;br&gt;+findByName(string): User" style="text;strokeColor=none;fillColor=none;align=left;verticalAlign=top;spacingLeft=4;spacingRight=4;overflow=hidden;rotatable=0;points=[[0,0.5],[1,0.5]];portConstraint=eastwest;whiteSpace=wrap;html=1;" parent="npJc-YGdQk0jCoHaoylc-97" vertex="1">
          <mxGeometry y="40" width="160" height="70" as="geometry" />
        </mxCell>
        <mxCell id="npJc-YGdQk0jCoHaoylc-101" value="" style="endArrow=block;dashed=1;endFill=0;endSize=12;html=1;rounded=0;entryX=0.5;entryY=0;entryDx=0;entryDy=0;exitX=0.497;exitY=1.004;exitDx=0;exitDy=0;exitPerimeter=0;" parent="1" source="npJc-YGdQk0jCoHaoylc-98" target="npJc-YGdQk0jCoHaoylc-85" edge="1">
          <mxGeometry width="160" relative="1" as="geometry">
            <mxPoint x="530" y="647" as="sourcePoint" />
            <mxPoint x="390" y="647" as="targetPoint" />
            <Array as="points" />
          </mxGeometry>
        </mxCell>
        <mxCell id="npJc-YGdQk0jCoHaoylc-102" value="&amp;lt;&amp;lt;instantiante&amp;gt;&amp;gt;" style="text;html=1;strokeColor=none;fillColor=none;align=center;verticalAlign=middle;whiteSpace=wrap;rounded=0;" parent="1" vertex="1">
          <mxGeometry x="320" y="490" width="60" height="30" as="geometry" />
        </mxCell>
        <mxCell id="npJc-YGdQk0jCoHaoylc-103" value="UserPK" style="swimlane;fontStyle=1;align=center;verticalAlign=top;childLayout=stackLayout;horizontal=1;startSize=26;horizontalStack=0;resizeParent=1;resizeParentMax=0;resizeLast=0;collapsible=1;marginBottom=0;whiteSpace=wrap;html=1;" parent="1" vertex="1">
          <mxGeometry x="520" y="300" width="160" height="140" as="geometry" />
        </mxCell>
        <mxCell id="npJc-YGdQk0jCoHaoylc-104" value="+UserId: int" style="text;strokeColor=none;fillColor=none;align=left;verticalAlign=top;spacingLeft=4;spacingRight=4;overflow=hidden;rotatable=0;points=[[0,0.5],[1,0.5]];portConstraint=eastwest;whiteSpace=wrap;html=1;" parent="npJc-YGdQk0jCoHaoylc-103" vertex="1">
          <mxGeometry y="26" width="160" height="26" as="geometry" />
        </mxCell>
        <mxCell id="npJc-YGdQk0jCoHaoylc-105" value="" style="line;strokeWidth=1;fillColor=none;align=left;verticalAlign=middle;spacingTop=-1;spacingLeft=3;spacingRight=3;rotatable=0;labelPosition=right;points=[];portConstraint=eastwest;strokeColor=inherit;" parent="npJc-YGdQk0jCoHaoylc-103" vertex="1">
          <mxGeometry y="52" width="160" height="8" as="geometry" />
        </mxCell>
        <mxCell id="npJc-YGdQk0jCoHaoylc-106" value="+userId(PK): void&lt;br&gt;+equals(Object): boolean&lt;br&gt;+getHashCode(): int" style="text;strokeColor=none;fillColor=none;align=left;verticalAlign=top;spacingLeft=4;spacingRight=4;overflow=hidden;rotatable=0;points=[[0,0.5],[1,0.5]];portConstraint=eastwest;whiteSpace=wrap;html=1;" parent="npJc-YGdQk0jCoHaoylc-103" vertex="1">
          <mxGeometry y="60" width="160" height="80" as="geometry" />
        </mxCell>
        <mxCell id="npJc-YGdQk0jCoHaoylc-107" value="«interface»&lt;br&gt;&lt;b&gt;java.io.Serializable&lt;/b&gt;" style="html=1;whiteSpace=wrap;" parent="1" vertex="1">
          <mxGeometry x="800" y="300" width="130" height="50" as="geometry" />
        </mxCell>
        <mxCell id="npJc-YGdQk0jCoHaoylc-109" value="" style="endArrow=block;dashed=1;endFill=0;endSize=12;html=1;rounded=0;entryX=0;entryY=0.5;entryDx=0;entryDy=0;exitX=1;exitY=0.5;exitDx=0;exitDy=0;" parent="1" source="npJc-YGdQk0jCoHaoylc-106" target="npJc-YGdQk0jCoHaoylc-107" edge="1">
          <mxGeometry width="160" relative="1" as="geometry">
            <mxPoint x="580" y="490" as="sourcePoint" />
            <mxPoint x="730" y="480" as="targetPoint" />
            <Array as="points">
              <mxPoint x="760" y="400" />
              <mxPoint x="760" y="325" />
            </Array>
          </mxGeometry>
        </mxCell>
        <mxCell id="npJc-YGdQk0jCoHaoylc-110" value="Implement" style="text;html=1;strokeColor=none;fillColor=none;align=center;verticalAlign=middle;whiteSpace=wrap;rounded=0;" parent="1" vertex="1">
          <mxGeometry x="770" y="370" width="60" height="30" as="geometry" />
        </mxCell>
        <mxCell id="npJc-YGdQk0jCoHaoylc-111" value="" style="endArrow=diamondThin;endFill=0;endSize=24;html=1;rounded=0;entryX=0.5;entryY=0;entryDx=0;entryDy=0;exitX=0.5;exitY=0;exitDx=0;exitDy=0;" parent="1" source="npJc-YGdQk0jCoHaoylc-97" target="npJc-YGdQk0jCoHaoylc-103" edge="1">
          <mxGeometry width="160" relative="1" as="geometry">
            <mxPoint x="720" y="610" as="sourcePoint" />
            <mxPoint x="840" y="535" as="targetPoint" />
            <Array as="points">
              <mxPoint x="300" y="280" />
              <mxPoint x="300" y="250" />
              <mxPoint x="490" y="250" />
              <mxPoint x="600" y="250" />
            </Array>
          </mxGeometry>
        </mxCell>
        <mxCell id="npJc-YGdQk0jCoHaoylc-113" value="aggregateUserPrimaryKey" style="text;html=1;strokeColor=none;fillColor=none;align=center;verticalAlign=middle;whiteSpace=wrap;rounded=0;" parent="1" vertex="1">
          <mxGeometry x="395" y="250" width="60" height="30" as="geometry" />
        </mxCell>
        <mxCell id="h9NvwhNNNv_-ra4jqCL--1" value="" style="endArrow=diamondThin;endFill=0;endSize=24;html=1;rounded=0;entryX=0.5;entryY=0;entryDx=0;entryDy=0;exitX=0.999;exitY=0.514;exitDx=0;exitDy=0;exitPerimeter=0;" parent="1" source="npJc-YGdQk0jCoHaoylc-3" target="npJc-YGdQk0jCoHaoylc-19" edge="1">
          <mxGeometry width="160" relative="1" as="geometry">
            <mxPoint x="710" y="720" as="sourcePoint" />
            <mxPoint x="840" y="515" as="targetPoint" />
            <Array as="points">
              <mxPoint x="780" y="734" />
              <mxPoint x="780" y="780" />
              <mxPoint x="780" y="890" />
              <mxPoint x="685" y="890" />
            </Array>
          </mxGeometry>
        </mxCell>
        <mxCell id="h9NvwhNNNv_-ra4jqCL--2" value="" style="endArrow=diamondThin;endFill=0;endSize=24;html=1;rounded=0;entryX=0.5;entryY=0;entryDx=0;entryDy=0;exitX=1.002;exitY=0.904;exitDx=0;exitDy=0;exitPerimeter=0;" parent="1" source="npJc-YGdQk0jCoHaoylc-2" target="npJc-YGdQk0jCoHaoylc-21" edge="1">
          <mxGeometry width="160" relative="1" as="geometry">
            <mxPoint x="710" y="678" as="sourcePoint" />
            <mxPoint x="695" y="980" as="targetPoint" />
            <Array as="points">
              <mxPoint x="965" y="714" />
            </Array>
          </mxGeometry>
        </mxCell>
        <mxCell id="h9NvwhNNNv_-ra4jqCL--3" value="" style="endArrow=diamondThin;endFill=0;endSize=24;html=1;rounded=0;entryX=0;entryY=0.5;entryDx=0;entryDy=0;exitX=1.005;exitY=0.816;exitDx=0;exitDy=0;exitPerimeter=0;" parent="1" source="npJc-YGdQk0jCoHaoylc-2" target="npJc-YGdQk0jCoHaoylc-64" edge="1">
          <mxGeometry width="160" relative="1" as="geometry">
            <mxPoint x="720" y="688" as="sourcePoint" />
            <mxPoint x="975" y="1010" as="targetPoint" />
            <Array as="points">
              <mxPoint x="810" y="699" />
              <mxPoint x="1050" y="699" />
              <mxPoint x="1050" y="992" />
            </Array>
          </mxGeometry>
        </mxCell>
        <mxCell id="h9NvwhNNNv_-ra4jqCL--5" value="" style="endArrow=diamondThin;endFill=0;endSize=24;html=1;rounded=0;exitX=1.005;exitY=0.593;exitDx=0;exitDy=0;exitPerimeter=0;entryX=0;entryY=0.5;entryDx=0;entryDy=0;" parent="1" source="npJc-YGdQk0jCoHaoylc-2" target="npJc-YGdQk0jCoHaoylc-56" edge="1">
          <mxGeometry width="160" relative="1" as="geometry">
            <mxPoint x="880" y="710" as="sourcePoint" />
            <mxPoint x="1040" y="710" as="targetPoint" />
            <Array as="points">
              <mxPoint x="1110" y="661" />
              <mxPoint x="1110" y="817" />
            </Array>
          </mxGeometry>
        </mxCell>
        <mxCell id="h9NvwhNNNv_-ra4jqCL--6" value="" style="endArrow=diamondThin;endFill=0;endSize=24;html=1;rounded=0;entryX=0;entryY=0.5;entryDx=0;entryDy=0;" parent="1" target="npJc-YGdQk0jCoHaoylc-71" edge="1">
          <mxGeometry width="160" relative="1" as="geometry">
            <mxPoint x="710" y="640" as="sourcePoint" />
            <mxPoint x="1010" y="670" as="targetPoint" />
            <Array as="points">
              <mxPoint x="950" y="640" />
              <mxPoint x="950" y="627" />
            </Array>
          </mxGeometry>
        </mxCell>
        <mxCell id="h9NvwhNNNv_-ra4jqCL--7" value="" style="endArrow=diamondThin;endFill=0;endSize=24;html=1;rounded=0;entryX=0;entryY=0.5;entryDx=0;entryDy=0;" parent="1" target="npJc-YGdQk0jCoHaoylc-18" edge="1">
          <mxGeometry width="160" relative="1" as="geometry">
            <mxPoint x="710" y="620" as="sourcePoint" />
            <mxPoint x="1030" y="630" as="targetPoint" />
            <Array as="points">
              <mxPoint x="880" y="620" />
              <mxPoint x="880" y="590" />
              <mxPoint x="1040" y="590" />
              <mxPoint x="1040" y="377" />
            </Array>
          </mxGeometry>
        </mxCell>
        <mxCell id="h9NvwhNNNv_-ra4jqCL--8" value="aggregateResumeFK" style="text;html=1;strokeColor=none;fillColor=none;align=center;verticalAlign=middle;whiteSpace=wrap;rounded=0;" parent="1" vertex="1">
          <mxGeometry x="850" y="730" width="60" height="30" as="geometry" />
        </mxCell>
        <mxCell id="h9NvwhNNNv_-ra4jqCL--9" value="aggregateResponsesFK" style="text;html=1;strokeColor=none;fillColor=none;align=center;verticalAlign=middle;whiteSpace=wrap;rounded=0;" parent="1" vertex="1">
          <mxGeometry x="1020" y="870" width="60" height="30" as="geometry" />
        </mxCell>
        <mxCell id="h9NvwhNNNv_-ra4jqCL--11" value="aggregatePositionProfileFK" style="text;html=1;strokeColor=none;fillColor=none;align=center;verticalAlign=middle;whiteSpace=wrap;rounded=0;" parent="1" vertex="1">
          <mxGeometry x="1120" y="780" width="60" height="30" as="geometry" />
        </mxCell>
        <mxCell id="h9NvwhNNNv_-ra4jqCL--12" value="aggregateContestFK" style="text;html=1;strokeColor=none;fillColor=none;align=center;verticalAlign=middle;whiteSpace=wrap;rounded=0;" parent="1" vertex="1">
          <mxGeometry x="1080" y="584" width="60" height="30" as="geometry" />
        </mxCell>
        <mxCell id="h9NvwhNNNv_-ra4jqCL--13" value="aggregateApplicationFK" style="text;html=1;strokeColor=none;fillColor=none;align=center;verticalAlign=middle;whiteSpace=wrap;rounded=0;" parent="1" vertex="1">
          <mxGeometry x="1000" y="330" width="60" height="30" as="geometry" />
        </mxCell>
        <mxCell id="h9NvwhNNNv_-ra4jqCL--14" value="aggregateTreatyFK" style="text;html=1;strokeColor=none;fillColor=none;align=center;verticalAlign=middle;whiteSpace=wrap;rounded=0;" parent="1" vertex="1">
          <mxGeometry x="720" y="900" width="60" height="30" as="geometry" />
        </mxCell>
      </root>
    </mxGraphModel>
  </diagram>
</mxfile>
